<?xml version="1.0" encoding="utf-8"?>
<!-- Generator: Adobe Illustrator 22.0.0, SVG Export Plug-In . SVG Version: 6.00 Build 0)  -->
<svg version="1.1" xmlns="http://www.w3.org/2000/svg" xmlns:xlink="http://www.w3.org/1999/xlink" x="0px" y="0px"
	 viewBox="0 0 501.3 501.3" style="enable-background:new 0 0 501.3 501.3;" xml:space="preserve">
<style type="text/css">
	.st0{display:none;}
	.st1{display:inline;}
</style>
<g id="Layer_1" class="st0">
	<path class="st1" d="M409.9,233.5c2-2.1,1.5-5.5-0.9-7l-27.5-17c-1.9-1.2-2.6-3.5-1.9-5.5l11.5-30.1c1-2.7-0.7-5.7-3.5-6.1
		l-31.9-5.2c-2.2-0.4-3.8-2.2-3.8-4.4l-0.9-32.3c-0.1-2.9-2.8-5-5.6-4.3L314,129c-2.1,0.5-4.3-0.6-5.2-2.6l-13.2-29.5
		c-1.2-2.6-4.5-3.5-6.8-1.8L262.6,114c-1.8,1.3-4.2,1.1-5.8-0.4l-23.4-22.2c-2.1-2-5.5-1.5-7,0.9l-17,27.5c-1.2,1.9-3.5,2.6-5.5,1.9
		L173.8,110c-2.7-1-5.7,0.7-6.1,3.5l-5.2,31.9c-0.4,2.2-2.2,3.8-4.4,3.8l-32.3,0.9c-2.9,0.1-5,2.8-4.3,5.6l7.4,31.4
		c0.5,2.1-0.6,4.3-2.6,5.2l-29.5,13.2c-2.6,1.2-3.5,4.5-1.8,6.8l18.9,26.2c1.3,1.8,1.1,4.2-0.4,5.8l-22.2,23.4c-2,2.1-1.5,5.5,0.9,7
		l27.5,17c1.9,1.2,2.6,3.5,1.9,5.5L110,327.4c-1,2.7,0.7,5.7,3.5,6.1l31.9,5.2c2.2,0.4,3.8,2.2,3.8,4.4l0.9,32.3
		c0.1,2.9,2.8,5,5.6,4.3l31.4-7.4c2.1-0.5,4.3,0.6,5.2,2.6l13.2,29.5c1.2,2.6,4.5,3.5,6.8,1.8l26.2-18.9c1.8-1.3,4.2-1.1,5.8,0.4
		l23.4,22.2c2.1,2,5.5,1.5,7-0.9l17-27.5c1.2-1.9,3.5-2.6,5.5-1.9l30.1,11.5c2.7,1,5.7-0.7,6.1-3.5l5.2-31.9
		c0.4-2.2,2.2-3.8,4.4-3.8l32.3-0.9c2.9-0.1,5-2.8,4.3-5.6l-7.4-31.4c-0.5-2.1,0.6-4.3,2.6-5.2l29.5-13.2c2.6-1.2,3.5-4.5,1.8-6.8
		l-18.9-26.2c-1.3-1.8-1.1-4.2,0.4-5.8L409.9,233.5z M370.5,261.2l16.5,23c1.5,2.1,0.7,5-1.6,6l-25.8,11.5c-1.8,0.8-2.7,2.7-2.3,4.6
		l6.5,27.5c0.6,2.5-1.3,4.8-3.8,4.9l-28.3,0.8c-1.9,0.1-3.5,1.5-3.8,3.4l-4.5,27.9c-0.4,2.5-3,4-5.4,3.1l-26.4-10.1
		c-1.8-0.7-3.8,0-4.8,1.6l-14.9,24.1c-1.3,2.2-4.3,2.5-6.2,0.8l-20.5-19.5c-1.4-1.3-3.5-1.5-5.1-0.3l-23,16.5c-2.1,1.5-5,0.7-6-1.6
		l-11.5-25.8c-0.8-1.8-2.7-2.7-4.6-2.3l-27.5,6.5c-2.5,0.6-4.8-1.3-4.9-3.8l-0.8-28.3c-0.1-1.9-1.5-3.5-3.4-3.8l-27.9-4.5
		c-2.5-0.4-4-3-3.1-5.4l10.1-26.4c0.7-1.8,0-3.8-1.6-4.8l-24.1-14.9c-2.2-1.3-2.5-4.3-0.8-6.2l19.5-20.5c1.3-1.4,1.5-3.5,0.3-5.1
		l-16.5-23c-1.5-2.1-0.7-5,1.6-6l25.8-11.5c1.8-0.8,2.7-2.7,2.3-4.6l-6.5-27.5c-0.6-2.5,1.3-4.8,3.8-4.9l28.3-0.8
		c1.9-0.1,3.5-1.5,3.8-3.4l4.5-27.9c0.4-2.5,3-4,5.4-3.1l26.4,10.1c1.8,0.7,3.8,0,4.8-1.6l14.9-24.1c1.3-2.2,4.3-2.5,6.2-0.8
		l20.5,19.5c1.4,1.3,3.5,1.5,5.1,0.3l23-16.5c2.1-1.5,5-0.7,6,1.6l11.5,25.8c0.8,1.8,2.7,2.7,4.6,2.3l27.5-6.5
		c2.5-0.6,4.8,1.3,4.9,3.8l0.8,28.3c0.1,1.9,1.5,3.5,3.4,3.8l27.9,4.5c2.5,0.4,4,3,3.1,5.4l-10.1,26.4c-0.7,1.8,0,3.8,1.6,4.8
		l24.1,14.9c2.2,1.3,2.5,4.3,0.8,6.2l-19.5,20.5C369.5,257.6,369.4,259.7,370.5,261.2z"/>
	<path class="st1" d="M234.8,289.6c-1.3,0-2.7-0.5-3.7-1.5l-31.7-31.7c-2-2-2-5.3,0-7.3s5.3-2,7.3,0l28.1,28.1l59.8-59.8
		c2-2,5.3-2,7.3,0s2,5.3,0,7.3l-63.4,63.4C237.4,289.1,236.1,289.6,234.8,289.6z"/>
	<path class="st1" d="M250.6,149.8c-55.7,0-100.8,45.1-100.8,100.8S195,351.4,250.6,351.4s100.8-45.1,100.8-100.8
		S306.3,149.8,250.6,149.8z M250.6,336.5c-47.4,0-85.8-38.4-85.8-85.8s38.4-85.8,85.8-85.8s85.8,38.4,85.8,85.8
		S298,336.5,250.6,336.5z"/>
</g>
<g id="Layer_2">
	<g>
		<path d="M318.4,190.3V82.6h-240v336h4.2v0.5h336V190.3H318.4z M134.9,262v26.1h-26.1V262H134.9z M108.8,235.8v-26.1h26.1v26.1
			H108.8z M134.9,314.4v26.1h-26.1v-26.1H134.9z M134.9,366.7v26.1h-26.1v-26.1H134.9z M186,262v26.1h-26.1V262H186z M159.8,235.8
			v-26.1H186v26.1H159.8z M186,314.4v26.1h-26.1v-26.1H186z M186,366.7v26.1h-26.1v-26.1H186z M237,262v26.1h-26.1V262H237z
			 M210.9,235.8v-26.1H237v26.1H210.9z M237,314.4v26.1h-26.1v-26.1H237z M237,366.7v26.1h-26.1v-26.1H237z M288,314.4v26.1h-26.1
			v-26.1H288z M261.9,288.1V262H288v26.1H261.9z M288,366.7v26.1h-26.1v-26.1H288z M288,235.8h-26.1v-26.1H288V235.8z M261.9,108.4
			H288v26.1h-26.1V108.4z M261.9,160.7H288v26.1h-26.1V160.7z M210.9,108.4H237v26.1h-26.1V108.4z M210.9,160.7H237v26.1h-26.1
			V160.7z M159.8,108.4H186v26.1h-26.1V108.4z M159.8,160.7H186v26.1h-26.1V160.7z M108.8,108.4h26.1v26.1h-26.1V108.4z
			 M108.8,160.7h26.1v26.1h-26.1V160.7z M404.7,402.8h-86.3V206.6h86.3V402.8z"/>
		<rect x="369.4" y="234.7" width="20.5" height="20.5"/>
		<rect x="369.4" y="274.7" width="20.5" height="20.5"/>
		<rect x="369.4" y="314.7" width="20.5" height="20.5"/>
		<rect x="369.4" y="354.7" width="20.5" height="20.5"/>
		<rect x="328.4" y="234.7" width="20.5" height="20.5"/>
		<rect x="328.4" y="274.7" width="20.5" height="20.5"/>
		<rect x="328.4" y="314.7" width="20.5" height="20.5"/>
		<rect x="328.4" y="354.7" width="20.5" height="20.5"/>
	</g>
</g>
</svg>
