<?xml version="1.0" encoding="UTF-8"?>
<svg xmlns="http://www.w3.org/2000/svg" xmlns:xlink="http://www.w3.org/1999/xlink" width="25pt" height="25pt" viewBox="0 0 25 25" version="1.1">
<g id="surface1">
<path style=" stroke:none;fill-rule:nonzero;fill:rgb(98.823529%,98.823529%,98.823529%);fill-opacity:1;" d="M 5.1875 0 L 3.707031 0 L 0.0742188 10.375 L 2.140625 10.375 L 2.6875 8.820312 L 6.171875 8.820312 L 6.710938 10.375 L 8.769531 10.375 Z M 3.363281 6.867188 L 4.4375 3.796875 L 5.5 6.867188 Z M 3.363281 6.867188 "/>
<path style=" stroke:none;fill-rule:nonzero;fill:rgb(98.823529%,98.823529%,98.823529%);fill-opacity:1;" d="M 23.597656 17.570312 L 19.898438 21.269531 L 19.898438 0 L 17.949219 0 L 17.949219 21.269531 L 14.25 17.570312 L 12.871094 18.945312 L 18.921875 25 L 24.976562 18.945312 Z M 23.597656 17.570312 "/>
<path style=" stroke:none;fill-rule:nonzero;fill:rgb(98.823529%,98.823529%,98.823529%);fill-opacity:1;" d="M 8.886719 14.609375 L 0.0234375 14.609375 L 0.0234375 16.558594 L 5.957031 16.558594 L 0.0234375 23.457031 L 0.0234375 24.984375 L 8.789062 24.984375 L 8.789062 23.039062 L 2.953125 23.039062 L 8.886719 16.140625 Z M 8.886719 14.609375 "/>
</g>
</svg>
