<?xml version="1.0" encoding="UTF-8"?>
<svg xmlns="http://www.w3.org/2000/svg" xmlns:xlink="http://www.w3.org/1999/xlink" width="25pt" height="25pt" viewBox="0 0 25 25" version="1.1">
<g id="surface1">
<path style=" stroke:none;fill-rule:nonzero;fill:rgb(100%,100%,100%);fill-opacity:1;" d="M 24.480469 11.246094 L 15.535156 2.304688 C 14.832031 1.609375 13.703125 1.609375 13.003906 2.3125 C 12.945312 2.371094 12.898438 2.425781 12.851562 2.492188 C 12.347656 3.242188 12.460938 4.242188 13.109375 4.863281 L 18.046875 9.816406 C 18.308594 10.078125 18.609375 10.296875 18.941406 10.472656 L 19.488281 10.753906 L 1.910156 10.753906 C 1.011719 10.714844 0.21875 11.332031 0.0234375 12.214844 C -0.132812 13.1875 0.527344 14.109375 1.503906 14.265625 C 1.605469 14.285156 1.710938 14.289062 1.8125 14.289062 L 19.449219 14.289062 L 19.0625 14.46875 C 18.6875 14.640625 18.347656 14.882812 18.050781 15.171875 L 13.105469 20.121094 C 12.449219 20.738281 12.34375 21.742188 12.847656 22.488281 C 13.429688 23.289062 14.550781 23.460938 15.34375 22.875 C 15.414062 22.832031 15.46875 22.773438 15.53125 22.71875 L 24.472656 13.773438 C 25.179688 13.074219 25.179688 11.945312 24.480469 11.246094 Z M 24.480469 11.246094 "/>
</g>
</svg>
