<?xml version="1.0" encoding="UTF-8"?>
<svg xmlns="http://www.w3.org/2000/svg" xmlns:xlink="http://www.w3.org/1999/xlink" width="30pt" height="30pt" viewBox="0 0 30 30" version="1.1">
<g id="surface1">
<path style=" stroke:none;fill-rule:nonzero;fill:rgb(100%,100%,100%);fill-opacity:1;" d="M 2.371094 22.105469 C 2.371094 23.53125 3.003906 24.792969 3.949219 25.578125 L 3.949219 28.421875 C 3.949219 29.367188 4.582031 30 5.53125 30 L 7.109375 30 C 8.054688 30 8.6875 29.367188 8.6875 28.421875 L 8.6875 26.84375 L 21.320312 26.84375 L 21.320312 28.421875 C 21.320312 29.367188 21.949219 30 22.898438 30 L 24.476562 30 C 25.425781 30 26.054688 29.367188 26.054688 28.421875 L 26.054688 25.578125 C 27.003906 24.785156 27.632812 23.53125 27.632812 22.105469 L 27.632812 6.316406 C 27.632812 0.785156 21.949219 0 15.003906 0 C 8.054688 0 2.371094 0.792969 2.371094 6.316406 Z M 7.894531 23.683594 C 6.632812 23.683594 5.523438 22.574219 5.523438 21.3125 C 5.523438 20.050781 6.625 18.941406 7.894531 18.941406 C 9.164062 18.941406 10.265625 20.050781 10.265625 21.3125 C 10.265625 22.574219 9.15625 23.683594 7.894531 23.683594 Z M 22.105469 23.683594 C 20.84375 23.683594 19.734375 22.574219 19.734375 21.3125 C 19.734375 20.050781 20.84375 18.949219 22.105469 18.949219 C 23.367188 18.949219 24.476562 20.054688 24.476562 21.320312 C 24.476562 22.582031 23.367188 23.683594 22.105469 23.683594 Z M 24.476562 14.210938 L 5.53125 14.210938 L 5.53125 6.316406 L 24.476562 6.316406 Z M 24.476562 14.210938 "/>
</g>
</svg>
