<?xml version="1.0" encoding="UTF-8"?>
<svg xmlns="http://www.w3.org/2000/svg" xmlns:xlink="http://www.w3.org/1999/xlink" width="15pt" height="15pt" viewBox="0 0 15 15" version="1.1">
<g id="surface1">
<path style=" stroke:none;fill-rule:nonzero;fill:rgb(99.607843%,67.45098%,8.235294%);fill-opacity:1;" d="M 1.1875 11.050781 C 1.1875 11.765625 1.5 12.394531 1.976562 12.789062 L 1.976562 14.210938 C 1.976562 14.683594 2.292969 15 2.765625 15 L 3.554688 15 C 4.027344 15 4.34375 14.683594 4.34375 14.210938 L 4.34375 13.421875 L 10.660156 13.421875 L 10.660156 14.210938 C 10.660156 14.683594 10.976562 15 11.449219 15 L 12.238281 15 C 12.710938 15 13.027344 14.683594 13.027344 14.210938 L 13.027344 12.789062 C 13.5 12.394531 13.816406 11.765625 13.816406 11.050781 L 13.816406 3.15625 C 13.816406 0.394531 10.976562 0 7.5 0 C 4.027344 0 1.1875 0.394531 1.1875 3.15625 Z M 3.949219 11.84375 C 3.316406 11.84375 2.761719 11.289062 2.761719 10.65625 C 2.761719 10.023438 3.3125 9.46875 3.949219 9.46875 C 4.582031 9.46875 5.132812 10.023438 5.132812 10.65625 C 5.132812 11.289062 4.578125 11.84375 3.949219 11.84375 Z M 11.050781 11.84375 C 10.421875 11.84375 9.867188 11.289062 9.867188 10.65625 C 9.867188 10.023438 10.421875 9.472656 11.050781 9.472656 C 11.683594 9.472656 12.238281 10.027344 12.238281 10.660156 C 12.238281 11.292969 11.683594 11.84375 11.050781 11.84375 Z M 12.238281 7.105469 L 2.765625 7.105469 L 2.765625 3.15625 L 12.238281 3.15625 Z M 12.238281 7.105469 "/>
</g>
</svg>
