<?xml version="1.0" encoding="utf-8"?>
<!-- Generator: Adobe Illustrator 22.0.0, SVG Export Plug-In . SVG Version: 6.00 Build 0)  -->
<svg version="1.1" id="Capa_1" xmlns="http://www.w3.org/2000/svg" xmlns:xlink="http://www.w3.org/1999/xlink" x="0px" y="0px"
	 viewBox="0 0 484.5 484.5" style="enable-background:new 0 0 484.5 484.5;" xml:space="preserve">
<style type="text/css">
	.st0{fill:#FEAC15;}
</style>
<g>
	<g id="directions-bus">
		<path class="st0" d="M38.3,357c0,23,10.2,43.4,25.5,56.1V459c0,15.3,10.2,25.5,25.5,25.5h25.5c15.3,0,25.5-10.2,25.5-25.5v-25.5
			h204V459c0,15.3,10.2,25.5,25.5,25.5h25.5c15.3,0,25.5-10.2,25.5-25.5v-45.9c15.3-12.8,25.5-33.1,25.5-56.1V102
			c0-89.3-91.8-102-204-102s-204,12.8-204,102V357z M127.5,382.5c-20.4,0-38.3-17.9-38.3-38.3s17.8-38.3,38.3-38.3
			s38.3,17.9,38.3,38.3S147.9,382.5,127.5,382.5z M357,382.5c-20.4,0-38.3-17.9-38.3-38.3S336.6,306,357,306s38.3,17.9,38.3,38.3
			S377.4,382.5,357,382.5z M395.3,229.5h-306V102h306V229.5z"/>
	</g>
</g>
</svg>
