<?xml version="1.0" encoding="UTF-8"?>
<svg xmlns="http://www.w3.org/2000/svg" xmlns:xlink="http://www.w3.org/1999/xlink" width="25pt" height="25pt" viewBox="0 0 25 25" version="1.1">
<g id="surface1">
<path style=" stroke:none;fill-rule:nonzero;fill:rgb(0%,0%,0%);fill-opacity:1;" d="M 23.558594 4.097656 C 23.207031 3.746094 22.789062 3.570312 22.304688 3.570312 L 20.519531 3.570312 L 20.519531 2.230469 C 20.519531 1.617188 20.304688 1.09375 19.867188 0.65625 C 19.429688 0.21875 18.902344 0 18.289062 0 L 17.398438 0 C 16.785156 0 16.261719 0.21875 15.824219 0.65625 C 15.386719 1.09375 15.167969 1.617188 15.167969 2.230469 L 15.167969 3.570312 L 9.816406 3.570312 L 9.816406 2.230469 C 9.816406 1.617188 9.597656 1.09375 9.160156 0.65625 C 8.722656 0.21875 8.199219 0 7.585938 0 L 6.691406 0 C 6.078125 0 5.554688 0.21875 5.117188 0.65625 C 4.679688 1.09375 4.460938 1.617188 4.460938 2.230469 L 4.460938 3.570312 L 2.675781 3.570312 C 2.195312 3.570312 1.773438 3.746094 1.421875 4.097656 C 1.070312 4.453125 0.890625 4.871094 0.890625 5.355469 L 0.890625 23.199219 C 0.890625 23.679688 1.070312 24.097656 1.421875 24.453125 C 1.773438 24.804688 2.195312 24.980469 2.675781 24.980469 L 22.304688 24.980469 C 22.789062 24.980469 23.207031 24.804688 23.558594 24.453125 C 23.914062 24.097656 24.089844 23.679688 24.089844 23.199219 L 24.089844 5.351562 C 24.089844 4.871094 23.914062 4.453125 23.558594 4.097656 Z M 16.953125 2.230469 C 16.953125 2.101562 16.992188 1.992188 17.078125 1.910156 C 17.160156 1.828125 17.269531 1.785156 17.398438 1.785156 L 18.289062 1.785156 C 18.421875 1.785156 18.527344 1.828125 18.609375 1.910156 C 18.695312 1.992188 18.738281 2.101562 18.738281 2.230469 L 18.738281 6.246094 C 18.738281 6.375 18.695312 6.484375 18.609375 6.566406 C 18.527344 6.648438 18.421875 6.691406 18.289062 6.691406 L 17.398438 6.691406 C 17.269531 6.691406 17.160156 6.648438 17.078125 6.566406 C 16.992188 6.484375 16.953125 6.375 16.953125 6.246094 Z M 6.246094 2.230469 C 6.246094 2.101562 6.289062 1.992188 6.371094 1.910156 C 6.453125 1.828125 6.5625 1.785156 6.691406 1.785156 L 7.585938 1.785156 C 7.714844 1.785156 7.820312 1.828125 7.90625 1.910156 C 7.988281 1.992188 8.03125 2.101562 8.03125 2.230469 L 8.03125 6.246094 C 8.03125 6.375 7.988281 6.484375 7.90625 6.566406 C 7.820312 6.648438 7.714844 6.691406 7.585938 6.691406 L 6.691406 6.691406 C 6.5625 6.691406 6.453125 6.648438 6.371094 6.566406 C 6.289062 6.484375 6.246094 6.375 6.246094 6.246094 Z M 22.304688 23.199219 L 2.675781 23.199219 L 2.675781 8.921875 L 22.304688 8.921875 Z M 22.304688 23.199219 "/>
</g>
</svg>
