<?xml version="1.0" encoding="UTF-8"?>
<svg xmlns="http://www.w3.org/2000/svg" xmlns:xlink="http://www.w3.org/1999/xlink" width="15pt" height="15pt" viewBox="0 0 15 15" version="1.1">
<g id="surface1">
<path style=" stroke:none;fill-rule:nonzero;fill:rgb(99.607843%,67.45098%,8.235294%);fill-opacity:1;" d="M 12.851562 0.773438 C 12.800781 0.75 11.574219 0.273438 10.148438 0.273438 C 9.300781 0.273438 8.523438 0.449219 7.898438 0.773438 C 7.324219 1.101562 6.550781 1.25 5.601562 1.25 C 4.273438 1.25 2.976562 0.949219 2.5 0.824219 L 2.5 0.25 C 2.5 0.101562 2.398438 0 2.25 0 C 2.101562 0 2 0.101562 2 0.25 L 2 14.75 C 2 14.898438 2.101562 15 2.25 15 C 2.398438 15 2.5 14.898438 2.5 14.75 L 2.5 8.851562 C 3.074219 9 4.300781 9.25 5.601562 9.25 C 6.625 9.25 7.476562 9.074219 8.125 8.75 C 8.699219 8.449219 9.375 8.300781 10.148438 8.300781 C 11.5 8.300781 12.648438 8.75 12.675781 8.773438 C 12.75 8.800781 12.851562 8.800781 12.898438 8.75 C 12.976562 8.699219 13 8.625 13 8.550781 L 13 1.050781 C 13 0.925781 12.949219 0.824219 12.851562 0.773438 Z M 12.851562 0.773438 "/>
</g>
</svg>
