<?xml version="1.0" encoding="utf-8"?>
<!-- Generator: Adobe Illustrator 22.0.0, SVG Export Plug-In . SVG Version: 6.00 Build 0)  -->
<svg version="1.1" id="Capa_1" xmlns="http://www.w3.org/2000/svg" xmlns:xlink="http://www.w3.org/1999/xlink" x="0px" y="0px"
	 viewBox="0 0 60 60" style="enable-background:new 0 0 60 60;" xml:space="preserve">
<style type="text/css">
	.st0{fill:#FEAC15;}
</style>
<path class="st0" d="M51.4,3.1c-0.2-0.1-5.1-2-10.8-2c-3.4,0-6.5,0.7-9,2C29.3,4.4,26.2,5,22.4,5C17.1,5,11.9,3.8,10,3.3V1
	c0-0.6-0.4-1-1-1S8,0.4,8,1v3c0,0,0,0,0,0c0,0,0,0,0,0V33v1.1V59c0,0.6,0.4,1,1,1s1-0.4,1-1V35.4c2.3,0.6,7.2,1.6,12.4,1.6
	c4.1,0,7.5-0.7,10.1-2c2.3-1.2,5-1.8,8.1-1.8c5.4,0,10,1.8,10.1,1.9c0.3,0.1,0.7,0.1,0.9-0.1c0.3-0.2,0.4-0.5,0.4-0.8v-30
	C52,3.7,51.8,3.3,51.4,3.1z"/>
</svg>
