<?xml version="1.0" encoding="UTF-8"?>
<svg xmlns="http://www.w3.org/2000/svg" xmlns:xlink="http://www.w3.org/1999/xlink" width="30pt" height="30pt" viewBox="0 0 30 30" version="1.1">
<g id="surface1">
<path style=" stroke:none;fill-rule:nonzero;fill:rgb(100%,100%,100%);fill-opacity:1;" d="M 25.699219 1.550781 C 25.601562 1.5 23.148438 0.550781 20.300781 0.550781 C 18.601562 0.550781 17.050781 0.898438 15.800781 1.550781 C 14.648438 2.199219 13.101562 2.5 11.199219 2.5 C 8.550781 2.5 5.949219 1.898438 5 1.648438 L 5 0.5 C 5 0.199219 4.800781 0 4.5 0 C 4.199219 0 4 0.199219 4 0.5 L 4 29.5 C 4 29.800781 4.199219 30 4.5 30 C 4.800781 30 5 29.800781 5 29.5 L 5 17.699219 C 6.148438 18 8.601562 18.5 11.199219 18.5 C 13.25 18.5 14.949219 18.148438 16.25 17.5 C 17.398438 16.898438 18.75 16.601562 20.300781 16.601562 C 23 16.601562 25.300781 17.5 25.351562 17.550781 C 25.5 17.601562 25.699219 17.601562 25.800781 17.5 C 25.949219 17.398438 26 17.25 26 17.101562 L 26 2.101562 C 26 1.851562 25.898438 1.648438 25.699219 1.550781 Z M 25.699219 1.550781 "/>
</g>
</svg>
