<?xml version="1.0" encoding="UTF-8"?>
<svg xmlns="http://www.w3.org/2000/svg" xmlns:xlink="http://www.w3.org/1999/xlink" width="25pt" height="25pt" viewBox="0 0 25 25" version="1.1">
<g id="surface1">
<path style=" stroke:none;fill-rule:nonzero;fill:rgb(93.333333%,58.039216%,13.333333%);fill-opacity:1;" d="M 12.5 0 C 5.605469 0 0 5.605469 0 12.5 C 0 19.394531 5.605469 25 12.5 25 C 19.394531 25 25 19.394531 25 12.5 C 25 5.605469 19.394531 0 12.5 0 Z M 11.765625 6.136719 C 10.65625 6.089844 9.550781 5.933594 8.496094 5.679688 C 8.664062 5.277344 8.847656 4.898438 9.042969 4.535156 C 9.851562 3.042969 10.84375 2 11.765625 1.621094 Z M 11.765625 7.601562 L 11.765625 11.765625 L 7.191406 11.765625 C 7.257812 10.140625 7.535156 8.523438 7.992188 7.0625 C 9.210938 7.363281 10.484375 7.546875 11.765625 7.601562 Z M 11.765625 13.234375 L 11.765625 17.398438 C 10.484375 17.453125 9.210938 17.632812 7.992188 17.9375 C 7.535156 16.46875 7.257812 14.859375 7.191406 13.234375 Z M 11.765625 18.863281 L 11.765625 23.375 C 10.84375 23 9.851562 21.953125 9.042969 20.464844 C 8.847656 20.101562 8.660156 19.71875 8.496094 19.320312 C 9.550781 19.066406 10.65625 18.910156 11.765625 18.863281 Z M 13.234375 18.863281 C 14.34375 18.910156 15.449219 19.066406 16.503906 19.320312 C 16.335938 19.722656 16.152344 20.101562 15.957031 20.464844 C 15.152344 21.953125 14.160156 23 13.234375 23.375 Z M 13.234375 17.398438 L 13.234375 13.234375 L 17.808594 13.234375 C 17.742188 14.859375 17.464844 16.476562 17.007812 17.9375 C 15.789062 17.636719 14.515625 17.453125 13.234375 17.398438 Z M 13.234375 11.765625 L 13.234375 7.601562 C 14.515625 7.546875 15.789062 7.367188 17.007812 7.0625 C 17.464844 8.53125 17.742188 10.140625 17.808594 11.765625 Z M 13.234375 6.136719 L 13.234375 1.621094 C 14.15625 1.996094 15.148438 3.042969 15.957031 4.53125 C 16.152344 4.894531 16.335938 5.277344 16.503906 5.675781 C 15.449219 5.933594 14.34375 6.089844 13.234375 6.136719 Z M 17.242188 3.832031 C 16.875 3.160156 16.476562 2.5625 16.054688 2.050781 C 17.519531 2.546875 18.847656 3.347656 19.960938 4.375 C 19.328125 4.71875 18.636719 5.007812 17.921875 5.257812 C 17.714844 4.765625 17.492188 4.289062 17.242188 3.832031 Z M 7.757812 3.832031 C 7.511719 4.289062 7.285156 4.765625 7.078125 5.265625 C 6.355469 5.015625 5.671875 4.722656 5.039062 4.378906 C 6.152344 3.355469 7.480469 2.554688 8.945312 2.054688 C 8.519531 2.5625 8.125 3.160156 7.757812 3.832031 Z M 6.582031 6.640625 C 6.085938 8.242188 5.785156 9.984375 5.722656 11.765625 L 1.488281 11.765625 C 1.644531 9.382812 2.558594 7.210938 3.992188 5.476562 C 4.789062 5.933594 5.660156 6.324219 6.582031 6.640625 Z M 5.726562 13.234375 C 5.789062 15.015625 6.085938 16.757812 6.585938 18.359375 C 5.664062 18.675781 4.796875 19.066406 4 19.523438 C 2.558594 17.789062 1.644531 15.617188 1.488281 13.234375 Z M 7.078125 19.734375 C 7.285156 20.234375 7.511719 20.710938 7.757812 21.167969 C 8.125 21.839844 8.523438 22.4375 8.945312 22.949219 C 7.480469 22.453125 6.152344 21.648438 5.039062 20.625 C 5.671875 20.277344 6.355469 19.984375 7.078125 19.734375 Z M 17.242188 21.167969 C 17.492188 20.710938 17.714844 20.234375 17.921875 19.734375 C 18.640625 19.984375 19.328125 20.277344 19.960938 20.621094 C 18.847656 21.644531 17.519531 22.445312 16.054688 22.945312 C 16.480469 22.4375 16.875 21.839844 17.242188 21.167969 Z M 18.417969 18.359375 C 18.914062 16.757812 19.214844 15.015625 19.277344 13.234375 L 23.515625 13.234375 C 23.359375 15.617188 22.445312 17.789062 21.011719 19.523438 C 20.210938 19.066406 19.339844 18.675781 18.417969 18.359375 Z M 19.273438 11.765625 C 19.210938 9.984375 18.914062 8.242188 18.414062 6.640625 C 19.335938 6.324219 20.203125 5.933594 21 5.476562 C 22.4375 7.210938 23.351562 9.390625 23.507812 11.765625 Z M 19.273438 11.765625 "/>
</g>
</svg>
