<?xml version="1.0" encoding="UTF-8"?>
<svg xmlns="http://www.w3.org/2000/svg" xmlns:xlink="http://www.w3.org/1999/xlink" width="30pt" height="30pt" viewBox="0 0 30 30" version="1.1">
<g id="surface1">
<path style=" stroke:none;fill-rule:nonzero;fill:rgb(100%,100%,100%);fill-opacity:1;" d="M 19.054688 11.386719 L 19.054688 4.941406 L 4.691406 4.941406 L 4.691406 25.050781 L 4.941406 25.050781 L 4.941406 25.082031 L 25.050781 25.082031 L 25.050781 11.386719 Z M 8.074219 15.679688 L 8.074219 17.242188 L 6.511719 17.242188 L 6.511719 15.679688 Z M 6.511719 14.109375 L 6.511719 12.550781 L 8.074219 12.550781 L 8.074219 14.109375 Z M 8.074219 18.816406 L 8.074219 20.378906 L 6.511719 20.378906 L 6.511719 18.816406 Z M 8.074219 21.945312 L 8.074219 23.507812 L 6.511719 23.507812 L 6.511719 21.945312 Z M 11.132812 15.679688 L 11.132812 17.242188 L 9.570312 17.242188 L 9.570312 15.679688 Z M 9.5625 14.109375 L 9.5625 12.550781 L 11.132812 12.550781 L 11.132812 14.109375 Z M 11.132812 18.816406 L 11.132812 20.378906 L 9.570312 20.378906 L 9.570312 18.816406 Z M 11.132812 21.945312 L 11.132812 23.507812 L 9.570312 23.507812 L 9.570312 21.945312 Z M 14.183594 15.679688 L 14.183594 17.242188 L 12.621094 17.242188 L 12.621094 15.679688 Z M 12.621094 14.109375 L 12.621094 12.550781 L 14.183594 12.550781 L 14.183594 14.109375 Z M 14.183594 18.816406 L 14.183594 20.378906 L 12.621094 20.378906 L 12.621094 18.816406 Z M 14.183594 21.945312 L 14.183594 23.507812 L 12.621094 23.507812 L 12.621094 21.945312 Z M 17.234375 18.816406 L 17.234375 20.378906 L 15.671875 20.378906 L 15.671875 18.816406 Z M 15.671875 17.242188 L 15.671875 15.679688 L 17.234375 15.679688 L 17.234375 17.242188 Z M 17.234375 21.945312 L 17.234375 23.507812 L 15.671875 23.507812 L 15.671875 21.945312 Z M 17.234375 14.109375 L 15.671875 14.109375 L 15.671875 12.550781 L 17.234375 12.550781 Z M 15.671875 6.488281 L 17.234375 6.488281 L 17.234375 8.050781 L 15.671875 8.050781 Z M 15.671875 9.617188 L 17.234375 9.617188 L 17.234375 11.179688 L 15.671875 11.179688 Z M 12.621094 6.488281 L 14.183594 6.488281 L 14.183594 8.050781 L 12.621094 8.050781 Z M 12.621094 9.617188 L 14.183594 9.617188 L 14.183594 11.179688 L 12.621094 11.179688 Z M 9.5625 6.488281 L 11.132812 6.488281 L 11.132812 8.050781 L 9.570312 8.050781 Z M 9.5625 9.617188 L 11.132812 9.617188 L 11.132812 11.179688 L 9.570312 11.179688 Z M 6.511719 6.488281 L 8.074219 6.488281 L 8.074219 8.050781 L 6.511719 8.050781 C 6.511719 8.050781 6.511719 6.488281 6.511719 6.488281 Z M 6.511719 9.617188 L 8.074219 9.617188 L 8.074219 11.179688 L 6.511719 11.179688 C 6.511719 11.179688 6.511719 9.617188 6.511719 9.617188 Z M 24.21875 24.105469 L 19.054688 24.105469 L 19.054688 12.363281 L 24.21875 12.363281 Z M 24.21875 24.105469 "/>
<path style=" stroke:none;fill-rule:nonzero;fill:rgb(100%,100%,100%);fill-opacity:1;" d="M 22.105469 14.046875 L 23.332031 14.046875 L 23.332031 15.273438 L 22.105469 15.273438 Z M 22.105469 14.046875 "/>
<path style=" stroke:none;fill-rule:nonzero;fill:rgb(100%,100%,100%);fill-opacity:1;" d="M 22.105469 16.4375 L 23.332031 16.4375 L 23.332031 17.667969 L 22.105469 17.667969 Z M 22.105469 16.4375 "/>
<path style=" stroke:none;fill-rule:nonzero;fill:rgb(100%,100%,100%);fill-opacity:1;" d="M 22.105469 18.832031 L 23.332031 18.832031 L 23.332031 20.058594 L 22.105469 20.058594 Z M 22.105469 18.832031 "/>
<path style=" stroke:none;fill-rule:nonzero;fill:rgb(100%,100%,100%);fill-opacity:1;" d="M 22.105469 21.226562 L 23.332031 21.226562 L 23.332031 22.453125 L 22.105469 22.453125 Z M 22.105469 21.226562 "/>
<path style=" stroke:none;fill-rule:nonzero;fill:rgb(100%,100%,100%);fill-opacity:1;" d="M 19.652344 14.046875 L 20.878906 14.046875 L 20.878906 15.273438 L 19.652344 15.273438 Z M 19.652344 14.046875 "/>
<path style=" stroke:none;fill-rule:nonzero;fill:rgb(100%,100%,100%);fill-opacity:1;" d="M 19.652344 16.4375 L 20.878906 16.4375 L 20.878906 17.667969 L 19.652344 17.667969 Z M 19.652344 16.4375 "/>
<path style=" stroke:none;fill-rule:nonzero;fill:rgb(100%,100%,100%);fill-opacity:1;" d="M 19.652344 18.832031 L 20.878906 18.832031 L 20.878906 20.058594 L 19.652344 20.058594 Z M 19.652344 18.832031 "/>
<path style=" stroke:none;fill-rule:nonzero;fill:rgb(100%,100%,100%);fill-opacity:1;" d="M 19.652344 21.226562 L 20.878906 21.226562 L 20.878906 22.453125 L 19.652344 22.453125 Z M 19.652344 21.226562 "/>
</g>
</svg>
