<?xml version="1.0" encoding="UTF-8"?>
<svg xmlns="http://www.w3.org/2000/svg" xmlns:xlink="http://www.w3.org/1999/xlink" width="15pt" height="15pt" viewBox="0 0 15 15" version="1.1">
<g id="surface1">
<path style=" stroke:none;fill-rule:nonzero;fill:rgb(100%,62.745098%,22.352941%);fill-opacity:1;" d="M 9.527344 5.695312 L 9.527344 2.472656 L 2.347656 2.472656 L 2.347656 12.527344 L 2.472656 12.527344 L 2.472656 12.539062 L 12.527344 12.539062 L 12.527344 5.695312 Z M 4.035156 7.839844 L 4.035156 8.621094 L 3.253906 8.621094 L 3.253906 7.839844 Z M 3.253906 7.054688 L 3.253906 6.273438 L 4.035156 6.273438 L 4.035156 7.054688 Z M 4.035156 9.40625 L 4.035156 10.1875 L 3.253906 10.1875 L 3.253906 9.40625 Z M 4.035156 10.972656 L 4.035156 11.753906 L 3.253906 11.753906 L 3.253906 10.972656 Z M 5.566406 7.839844 L 5.566406 8.621094 L 4.785156 8.621094 L 4.785156 7.839844 Z M 4.78125 7.054688 L 4.78125 6.273438 L 5.566406 6.273438 L 5.566406 7.054688 Z M 5.566406 9.40625 L 5.566406 10.1875 L 4.785156 10.1875 L 4.785156 9.40625 Z M 5.566406 10.972656 L 5.566406 11.753906 L 4.785156 11.753906 L 4.785156 10.972656 Z M 7.089844 7.839844 L 7.089844 8.621094 L 6.3125 8.621094 L 6.3125 7.839844 Z M 6.3125 7.054688 L 6.3125 6.273438 L 7.089844 6.273438 L 7.089844 7.054688 Z M 7.089844 9.40625 L 7.089844 10.1875 L 6.3125 10.1875 L 6.3125 9.40625 Z M 7.089844 10.972656 L 7.089844 11.753906 L 6.3125 11.753906 L 6.3125 10.972656 Z M 8.617188 9.40625 L 8.617188 10.1875 L 7.835938 10.1875 L 7.835938 9.40625 Z M 7.835938 8.621094 L 7.835938 7.839844 L 8.617188 7.839844 L 8.617188 8.621094 Z M 8.617188 10.972656 L 8.617188 11.753906 L 7.835938 11.753906 L 7.835938 10.972656 Z M 8.617188 7.054688 L 7.835938 7.054688 L 7.835938 6.273438 L 8.617188 6.273438 Z M 7.835938 3.242188 L 8.617188 3.242188 L 8.617188 4.023438 L 7.835938 4.023438 Z M 7.835938 4.808594 L 8.617188 4.808594 L 8.617188 5.589844 L 7.835938 5.589844 Z M 6.3125 3.242188 L 7.089844 3.242188 L 7.089844 4.023438 L 6.3125 4.023438 Z M 6.3125 4.808594 L 7.089844 4.808594 L 7.089844 5.589844 L 6.3125 5.589844 Z M 4.78125 3.242188 L 5.566406 3.242188 L 5.566406 4.023438 L 4.785156 4.023438 Z M 4.78125 4.808594 L 5.566406 4.808594 L 5.566406 5.589844 L 4.785156 5.589844 Z M 3.253906 3.242188 L 4.035156 3.242188 L 4.035156 4.023438 L 3.253906 4.023438 C 3.253906 4.023438 3.253906 3.242188 3.253906 3.242188 Z M 3.253906 4.808594 L 4.035156 4.808594 L 4.035156 5.589844 L 3.253906 5.589844 C 3.253906 5.589844 3.253906 4.808594 3.253906 4.808594 Z M 12.109375 12.050781 L 9.527344 12.050781 L 9.527344 6.183594 L 12.109375 6.183594 Z M 12.109375 12.050781 "/>
<path style=" stroke:none;fill-rule:nonzero;fill:rgb(100%,62.745098%,22.352941%);fill-opacity:1;" d="M 11.054688 7.023438 L 11.667969 7.023438 L 11.667969 7.636719 L 11.054688 7.636719 Z M 11.054688 7.023438 "/>
<path style=" stroke:none;fill-rule:nonzero;fill:rgb(100%,62.745098%,22.352941%);fill-opacity:1;" d="M 11.054688 8.21875 L 11.667969 8.21875 L 11.667969 8.832031 L 11.054688 8.832031 Z M 11.054688 8.21875 "/>
<path style=" stroke:none;fill-rule:nonzero;fill:rgb(100%,62.745098%,22.352941%);fill-opacity:1;" d="M 11.054688 9.417969 L 11.667969 9.417969 L 11.667969 10.03125 L 11.054688 10.03125 Z M 11.054688 9.417969 "/>
<path style=" stroke:none;fill-rule:nonzero;fill:rgb(100%,62.745098%,22.352941%);fill-opacity:1;" d="M 11.054688 10.613281 L 11.667969 10.613281 L 11.667969 11.226562 L 11.054688 11.226562 Z M 11.054688 10.613281 "/>
<path style=" stroke:none;fill-rule:nonzero;fill:rgb(100%,62.745098%,22.352941%);fill-opacity:1;" d="M 9.828125 7.023438 L 10.441406 7.023438 L 10.441406 7.636719 L 9.828125 7.636719 Z M 9.828125 7.023438 "/>
<path style=" stroke:none;fill-rule:nonzero;fill:rgb(100%,62.745098%,22.352941%);fill-opacity:1;" d="M 9.828125 8.21875 L 10.441406 8.21875 L 10.441406 8.832031 L 9.828125 8.832031 Z M 9.828125 8.21875 "/>
<path style=" stroke:none;fill-rule:nonzero;fill:rgb(100%,62.745098%,22.352941%);fill-opacity:1;" d="M 9.828125 9.417969 L 10.441406 9.417969 L 10.441406 10.03125 L 9.828125 10.03125 Z M 9.828125 9.417969 "/>
<path style=" stroke:none;fill-rule:nonzero;fill:rgb(100%,62.745098%,22.352941%);fill-opacity:1;" d="M 9.828125 10.613281 L 10.441406 10.613281 L 10.441406 11.226562 L 9.828125 11.226562 Z M 9.828125 10.613281 "/>
</g>
</svg>
