<?xml version="1.0" encoding="UTF-8"?>
<svg xmlns="http://www.w3.org/2000/svg" xmlns:xlink="http://www.w3.org/1999/xlink" width="15pt" height="15pt" viewBox="0 0 15 15" version="1.1">
<g id="surface1">
<path style=" stroke:none;fill-rule:nonzero;fill:rgb(95.686275%,54.509804%,12.54902%);fill-opacity:1;" d="M 9.507812 0 C 8.449219 0 7.417969 0.296875 6.523438 0.859375 C 6.382812 0.945312 6.34375 1.128906 6.429688 1.265625 C 6.519531 1.40625 6.699219 1.449219 6.839844 1.359375 C 7.636719 0.855469 8.5625 0.589844 9.507812 0.589844 C 12.277344 0.589844 14.53125 2.84375 14.53125 5.609375 C 14.53125 8.378906 12.277344 10.632812 9.507812 10.632812 C 6.742188 10.632812 4.488281 8.378906 4.488281 5.609375 C 4.488281 4.664062 4.753906 3.738281 5.257812 2.9375 C 5.34375 2.800781 5.304688 2.621094 5.167969 2.53125 C 5.03125 2.445312 4.847656 2.484375 4.761719 2.621094 C 4.195312 3.519531 3.898438 4.550781 3.898438 5.609375 C 3.898438 6.839844 4.296875 7.976562 4.964844 8.898438 L 4.464844 9.40625 C 4.132812 9.25 3.726562 9.304688 3.453125 9.582031 L 0.261719 12.773438 C -0.0859375 13.117188 -0.0859375 13.679688 0.261719 14.023438 L 1.097656 14.859375 C 1.265625 15.027344 1.484375 15.121094 1.722656 15.121094 C 1.957031 15.121094 2.183594 15.027344 2.347656 14.859375 L 5.542969 11.667969 C 5.707031 11.496094 5.800781 11.273438 5.800781 11.039062 C 5.800781 10.902344 5.773438 10.777344 5.71875 10.65625 L 6.222656 10.15625 C 7.144531 10.824219 8.28125 11.222656 9.507812 11.222656 C 12.605469 11.222656 15.121094 8.707031 15.121094 5.609375 C 15.121094 2.515625 12.605469 0 9.507812 0 Z M 5.125 11.25 L 1.929688 14.445312 C 1.871094 14.5 1.796875 14.53125 1.71875 14.53125 C 1.640625 14.53125 1.5625 14.5 1.507812 14.445312 L 0.671875 13.609375 C 0.558594 13.492188 0.558594 13.304688 0.671875 13.191406 L 3.871094 9.996094 C 3.925781 9.941406 4.003906 9.910156 4.078125 9.910156 C 4.15625 9.910156 4.230469 9.941406 4.289062 9.996094 L 5.125 10.832031 C 5.179688 10.890625 5.210938 10.960938 5.210938 11.042969 C 5.210938 11.125 5.179688 11.195312 5.125 11.25 Z M 5.335938 10.207031 L 4.917969 9.789062 L 5.34375 9.367188 C 5.476562 9.511719 5.613281 9.652344 5.761719 9.78125 Z M 5.335938 10.207031 "/>
<path style=" stroke:none;fill-rule:nonzero;fill:rgb(95.686275%,54.509804%,12.54902%);fill-opacity:1;" d="M 13.007812 7.835938 C 13.152344 7.914062 13.328125 7.863281 13.40625 7.71875 C 13.753906 7.074219 13.941406 6.347656 13.941406 5.609375 C 13.941406 3.167969 11.953125 1.179688 9.507812 1.179688 C 7.066406 1.179688 5.078125 3.167969 5.078125 5.609375 C 5.078125 8.054688 7.066406 10.042969 9.507812 10.042969 C 10.246094 10.042969 10.972656 9.855469 11.621094 9.507812 C 11.761719 9.433594 11.816406 9.253906 11.738281 9.109375 C 11.660156 8.964844 11.480469 8.910156 11.332031 8.988281 C 10.777344 9.292969 10.148438 9.449219 9.507812 9.449219 C 7.394531 9.449219 5.671875 7.726562 5.671875 5.609375 C 5.671875 3.496094 7.394531 1.773438 9.507812 1.773438 C 11.625 1.773438 13.347656 3.496094 13.347656 5.609375 C 13.347656 6.25 13.1875 6.878906 12.886719 7.4375 C 12.808594 7.582031 12.863281 7.761719 13.007812 7.835938 Z M 13.007812 7.835938 "/>
<path style=" stroke:none;fill-rule:nonzero;fill:rgb(95.686275%,54.509804%,12.54902%);fill-opacity:1;" d="M 5.75 2.148438 C 5.820312 2.148438 5.890625 2.121094 5.945312 2.070312 C 6.070312 1.960938 6.078125 1.773438 5.96875 1.652344 C 5.859375 1.535156 5.671875 1.523438 5.550781 1.632812 C 5.433594 1.742188 5.421875 1.929688 5.53125 2.050781 C 5.589844 2.113281 5.671875 2.148438 5.75 2.148438 Z M 5.75 2.148438 "/>
<path style=" stroke:none;fill-rule:nonzero;fill:rgb(95.686275%,54.509804%,12.54902%);fill-opacity:1;" d="M 12.433594 8.832031 C 12.5 8.832031 12.566406 8.808594 12.621094 8.761719 C 12.746094 8.660156 12.761719 8.472656 12.660156 8.34375 C 12.558594 8.222656 12.371094 8.203125 12.242188 8.308594 C 12.121094 8.410156 12.101562 8.597656 12.207031 8.722656 C 12.265625 8.792969 12.347656 8.832031 12.433594 8.832031 Z M 12.433594 8.832031 "/>
<path style=" stroke:none;fill-rule:nonzero;fill:rgb(95.686275%,54.509804%,12.54902%);fill-opacity:1;" d="M 12.601562 5.785156 C 12.675781 5.679688 12.675781 5.542969 12.601562 5.4375 C 11.960938 4.535156 10.773438 3.972656 9.507812 3.972656 C 8.246094 3.972656 7.058594 4.535156 6.417969 5.4375 C 6.34375 5.542969 6.34375 5.679688 6.417969 5.785156 C 7.058594 6.6875 8.246094 7.25 9.507812 7.25 C 10.773438 7.25 11.960938 6.6875 12.601562 5.785156 Z M 10.558594 5.609375 C 10.558594 6.191406 10.089844 6.660156 9.507812 6.660156 C 8.929688 6.660156 8.460938 6.191406 8.460938 5.609375 C 8.460938 5.03125 8.929688 4.5625 9.507812 4.5625 C 10.089844 4.5625 10.558594 5.03125 10.558594 5.609375 Z M 7.03125 5.609375 C 7.296875 5.300781 7.648438 5.046875 8.050781 4.867188 C 7.9375 5.089844 7.871094 5.34375 7.871094 5.609375 C 7.871094 5.878906 7.9375 6.132812 8.050781 6.355469 C 7.648438 6.175781 7.296875 5.921875 7.03125 5.609375 Z M 10.972656 6.355469 C 11.085938 6.132812 11.152344 5.878906 11.152344 5.609375 C 11.152344 5.34375 11.085938 5.089844 10.972656 4.867188 C 11.375 5.046875 11.722656 5.296875 11.992188 5.609375 C 11.722656 5.921875 11.375 6.175781 10.972656 6.355469 Z M 10.972656 6.355469 "/>
<path style=" stroke:none;fill-rule:nonzero;fill:rgb(95.686275%,54.509804%,12.54902%);fill-opacity:1;" d="M 9.507812 5.90625 C 9.671875 5.90625 9.804688 5.773438 9.804688 5.609375 C 9.804688 5.449219 9.671875 5.316406 9.507812 5.316406 C 9.347656 5.316406 9.214844 5.449219 9.214844 5.609375 C 9.214844 5.773438 9.347656 5.90625 9.507812 5.90625 Z M 9.507812 5.90625 "/>
</g>
</svg>
