<?xml version="1.0" encoding="UTF-8"?>
<svg xmlns="http://www.w3.org/2000/svg" xmlns:xlink="http://www.w3.org/1999/xlink" width="25pt" height="25pt" viewBox="0 0 25 25" version="1.1">
<g id="surface1">
<path style=" stroke:none;fill-rule:nonzero;fill:rgb(45.098039%,68.627451%,0%);fill-opacity:1;" d="M 1.871094 4.308594 C 0.839844 4.308594 0 5.148438 0 6.183594 L 0 18.816406 C 0 19.851562 0.839844 20.691406 1.871094 20.691406 L 8.332031 20.691406 L 8.332031 4.308594 Z M 1.871094 4.308594 "/>
<path style=" stroke:none;fill-rule:nonzero;fill:rgb(96.078431%,96.078431%,96.078431%);fill-opacity:1;" d="M 8.332031 4.308594 L 16.667969 4.308594 L 16.667969 20.691406 L 8.332031 20.691406 Z M 8.332031 4.308594 "/>
<path style=" stroke:none;fill-rule:nonzero;fill:rgb(100%,29.411765%,33.333333%);fill-opacity:1;" d="M 23.128906 4.308594 L 16.667969 4.308594 L 16.667969 20.691406 L 23.128906 20.691406 C 24.160156 20.691406 25 19.851562 25 18.816406 L 25 6.183594 C 25 5.148438 24.160156 4.308594 23.128906 4.308594 Z M 23.128906 4.308594 "/>
<path style=" stroke:none;fill-rule:nonzero;fill:rgb(100%,82.352941%,31.372549%);fill-opacity:1;" d="M 13.242188 12.886719 L 12.5 13.257812 L 12.5 13.628906 L 12.871094 13.628906 Z M 13.242188 12.886719 "/>
<path style=" stroke:none;fill-rule:nonzero;fill:rgb(0%,76.470588%,62.745098%);fill-opacity:1;" d="M 12.5 14.558594 C 12.398438 14.558594 12.3125 14.476562 12.3125 14.371094 L 12.3125 13.628906 C 12.3125 13.527344 12.398438 13.441406 12.5 13.441406 C 12.601562 13.441406 12.6875 13.527344 12.6875 13.628906 L 12.6875 14.371094 C 12.6875 14.476562 12.601562 14.558594 12.5 14.558594 Z M 12.5 14.558594 "/>
<path style=" stroke:none;fill-rule:nonzero;fill:rgb(0%,76.470588%,62.745098%);fill-opacity:1;" d="M 12.5 13.816406 C 11.769531 13.816406 11.066406 13.53125 10.515625 13.023438 C 10.441406 12.953125 10.433594 12.835938 10.503906 12.757812 C 10.574219 12.683594 10.691406 12.679688 10.769531 12.75 C 11.25 13.195312 11.863281 13.441406 12.5 13.441406 C 13.136719 13.441406 13.75 13.195312 14.230469 12.75 C 14.308594 12.679688 14.425781 12.683594 14.496094 12.757812 C 14.566406 12.835938 14.558594 12.953125 14.484375 13.023438 C 13.933594 13.53125 13.230469 13.816406 12.5 13.816406 Z M 12.5 13.816406 "/>
<path style=" stroke:none;fill-rule:nonzero;fill:rgb(0%,66.666667%,86.27451%);fill-opacity:1;" d="M 12.5 14.558594 C 12.023438 14.558594 11.5625 14.417969 11.164062 14.15625 L 11.371094 13.847656 C 12.042969 14.292969 12.957031 14.292969 13.628906 13.847656 L 13.835938 14.15625 C 13.4375 14.417969 12.976562 14.558594 12.5 14.558594 Z M 12.5 14.558594 "/>
<path style=" stroke:none;fill-rule:nonzero;fill:rgb(45.098039%,17.647059%,21.568627%);fill-opacity:1;" d="M 12.207031 12.050781 L 11.796875 12.683594 L 11.726562 12.894531 L 12.792969 12.644531 Z M 12.207031 12.050781 "/>
<path style=" stroke:none;fill-rule:nonzero;fill:rgb(66.666667%,82.352941%,39.215686%);fill-opacity:1;" d="M 11.363281 13.097656 C 10.871094 13.097656 10.28125 12.683594 10.125 11.761719 L 10.492188 11.699219 C 10.621094 12.464844 11.09375 12.726562 11.375 12.726562 C 11.460938 12.722656 11.554688 12.691406 11.558594 12.632812 C 11.570312 12.558594 11.570312 12.542969 11.375 12.476562 C 11.269531 12.441406 11.152344 12.398438 11.066406 12.304688 C 10.726562 11.914062 11.1875 11.503906 11.410156 11.304688 C 11.449219 11.273438 11.464844 11.242188 11.460938 11.230469 C 11.445312 11.199219 11.375 11.152344 11.292969 11.152344 C 11.054688 11.152344 10.875 11.015625 10.824219 10.804688 C 10.769531 10.582031 10.871094 10.347656 11.066406 10.246094 L 11.238281 10.578125 C 11.191406 10.601562 11.175781 10.667969 11.1875 10.714844 C 11.191406 10.734375 11.203125 10.777344 11.292969 10.777344 C 11.519531 10.777344 11.734375 10.914062 11.808594 11.097656 C 11.835938 11.175781 11.882812 11.382812 11.65625 11.582031 C 11.410156 11.800781 11.265625 11.964844 11.347656 12.058594 C 11.363281 12.078125 11.445312 12.105469 11.496094 12.125 C 11.664062 12.179688 11.972656 12.285156 11.929688 12.675781 C 11.902344 12.917969 11.683594 13.089844 11.386719 13.097656 C 11.378906 13.097656 11.371094 13.097656 11.363281 13.097656 Z M 11.363281 13.097656 "/>
<path style=" stroke:none;fill-rule:nonzero;fill:rgb(52.941176%,25.490196%,31.372549%);fill-opacity:1;" d="M 12.871094 11.027344 C 12.871094 11.027344 13.242188 10.285156 12.5 9.910156 C 12.5 9.910156 15.101562 9.539062 14.730469 12.886719 C 14.484375 12.691406 14.125 12.332031 13.996094 12.050781 L 12.871094 11.398438 Z M 12.871094 11.027344 "/>
<path style=" stroke:none;fill-rule:nonzero;fill:rgb(45.098039%,17.647059%,21.568627%);fill-opacity:1;" d="M 12.5 11.769531 L 14.359375 12.886719 C 14.359375 12.886719 14.359375 12.886719 13.613281 13.257812 L 12.5 12.140625 Z M 12.5 11.769531 "/>
<path style=" stroke:none;fill-rule:nonzero;fill:rgb(47.058824%,23.529412%,27.45098%);fill-opacity:1;" d="M 11.757812 10.65625 C 11.960938 10.65625 12.128906 10.820312 12.128906 11.027344 C 11.90625 11.25 11.851562 11.585938 11.992188 11.867188 L 12.074219 12.035156 C 12.109375 12.105469 12.15625 12.171875 12.210938 12.226562 L 13.242188 13.257812 L 13.242188 12.742188 C 13.242188 12.105469 13.09375 11.472656 12.808594 10.898438 C 12.621094 10.523438 12.234375 10.285156 11.8125 10.285156 L 11.757812 10.285156 Z M 11.757812 10.65625 "/>
<path style=" stroke:none;fill-rule:nonzero;fill:rgb(100%,82.352941%,31.372549%);fill-opacity:1;" d="M 11.757812 10.285156 L 11.386719 10.65625 L 11.386719 11.027344 C 11.386719 11.027344 11.828125 10.800781 11.976562 10.730469 C 12.082031 10.679688 12.0625 10.5625 12 10.507812 C 11.953125 10.460938 11.757812 10.285156 11.757812 10.285156 Z M 11.757812 10.285156 "/>
<path style=" stroke:none;fill-rule:nonzero;fill:rgb(66.666667%,82.352941%,39.215686%);fill-opacity:1;" d="M 12.5 15.300781 C 10.757812 15.300781 9.339844 13.882812 9.339844 12.140625 L 9.710938 12.140625 C 9.710938 13.679688 10.960938 14.929688 12.5 14.929688 C 14.039062 14.929688 15.289062 13.679688 15.289062 12.140625 L 15.660156 12.140625 C 15.660156 13.882812 14.242188 15.300781 12.5 15.300781 Z M 12.5 15.300781 "/>
<path style=" stroke:none;fill-rule:nonzero;fill:rgb(100%,88.235294%,35.294118%);fill-opacity:1;" d="M 9.984375 13.246094 C 9.984375 13.382812 9.871094 13.496094 9.734375 13.496094 C 9.59375 13.496094 9.480469 13.382812 9.480469 13.246094 C 9.480469 13.105469 9.59375 12.992188 9.734375 12.992188 C 9.871094 12.992188 9.984375 13.105469 9.984375 13.246094 Z M 9.984375 13.246094 "/>
<path style=" stroke:none;fill-rule:nonzero;fill:rgb(100%,88.235294%,35.294118%);fill-opacity:1;" d="M 10.542969 14.136719 C 10.542969 14.273438 10.429688 14.386719 10.289062 14.386719 C 10.152344 14.386719 10.039062 14.273438 10.039062 14.136719 C 10.039062 13.996094 10.152344 13.882812 10.289062 13.882812 C 10.429688 13.882812 10.542969 13.996094 10.542969 14.136719 Z M 10.542969 14.136719 "/>
<path style=" stroke:none;fill-rule:nonzero;fill:rgb(100%,88.235294%,35.294118%);fill-opacity:1;" d="M 11.449219 14.808594 C 11.449219 14.949219 11.335938 15.0625 11.195312 15.0625 C 11.054688 15.0625 10.945312 14.949219 10.945312 14.808594 C 10.945312 14.667969 11.054688 14.558594 11.195312 14.558594 C 11.335938 14.558594 11.449219 14.667969 11.449219 14.808594 Z M 11.449219 14.808594 "/>
<path style=" stroke:none;fill-rule:nonzero;fill:rgb(100%,88.235294%,35.294118%);fill-opacity:1;" d="M 15.546875 13.246094 C 15.546875 13.382812 15.433594 13.496094 15.292969 13.496094 C 15.15625 13.496094 15.042969 13.382812 15.042969 13.246094 C 15.042969 13.105469 15.15625 12.992188 15.292969 12.992188 C 15.433594 12.992188 15.546875 13.105469 15.546875 13.246094 Z M 15.546875 13.246094 "/>
<path style=" stroke:none;fill-rule:nonzero;fill:rgb(100%,88.235294%,35.294118%);fill-opacity:1;" d="M 14.988281 14.136719 C 14.988281 14.273438 14.875 14.386719 14.734375 14.386719 C 14.597656 14.386719 14.484375 14.273438 14.484375 14.136719 C 14.484375 13.996094 14.597656 13.882812 14.734375 13.882812 C 14.875 13.882812 14.988281 13.996094 14.988281 14.136719 Z M 14.988281 14.136719 "/>
<path style=" stroke:none;fill-rule:nonzero;fill:rgb(100%,88.235294%,35.294118%);fill-opacity:1;" d="M 14.082031 14.808594 C 14.082031 14.949219 13.96875 15.0625 13.832031 15.0625 C 13.691406 15.0625 13.578125 14.949219 13.578125 14.808594 C 13.578125 14.667969 13.691406 14.558594 13.832031 14.558594 C 13.96875 14.558594 14.082031 14.667969 14.082031 14.808594 Z M 14.082031 14.808594 "/>
<path style=" stroke:none;fill-rule:nonzero;fill:rgb(100%,70.588235%,47.058824%);fill-opacity:1;" d="M 12.6875 14.742188 L 12.3125 14.742188 C 12.109375 14.742188 11.941406 14.578125 11.941406 14.371094 C 11.941406 14.167969 12.109375 14 12.3125 14 L 12.6875 14 C 12.890625 14 13.058594 14.167969 13.058594 14.371094 C 13.058594 14.578125 12.890625 14.742188 12.6875 14.742188 Z M 12.6875 14.742188 "/>
<path style=" stroke:none;fill-rule:nonzero;fill:rgb(60.784314%,29.411765%,35.294118%);fill-opacity:1;" d="M 13.996094 12.050781 C 14.117188 12.414062 14.382812 12.746094 14.730469 12.886719 C 15.101562 9.539062 12.5 9.910156 12.5 9.910156 C 14.359375 9.910156 13.996094 12.050781 13.996094 12.050781 Z M 13.996094 12.050781 "/>
</g>
</svg>
