<?xml version="1.0" encoding="UTF-8"?>
<svg xmlns="http://www.w3.org/2000/svg" xmlns:xlink="http://www.w3.org/1999/xlink" width="25pt" height="25pt" viewBox="0 0 25 25" version="1.1">
<g id="surface1">
<path style=" stroke:none;fill-rule:nonzero;fill:rgb(95.686275%,54.509804%,12.54902%);fill-opacity:1;" d="M 17.703125 8.425781 L 17.4375 7.546875 C 17.097656 6.546875 16.011719 6.011719 15.011719 6.347656 C 14.449219 6.542969 14.003906 6.984375 13.8125 7.546875 L 13.546875 8.425781 C 13.324219 9.171875 13.277344 9.953125 13.410156 10.71875 C 13.535156 11.363281 13.941406 11.917969 14.519531 12.21875 L 14.21875 18.917969 C 14.175781 19.292969 14.300781 19.660156 14.550781 19.941406 C 15.09375 20.535156 16.015625 20.578125 16.609375 20.035156 C 16.640625 20.003906 16.671875 19.972656 16.703125 19.941406 C 16.949219 19.671875 17.074219 19.308594 17.035156 18.941406 L 16.734375 12.21875 C 17.3125 11.910156 17.71875 11.359375 17.84375 10.71875 C 17.972656 9.953125 17.925781 9.167969 17.703125 8.425781 Z M 17.019531 10.574219 C 16.933594 11.035156 16.597656 11.417969 16.15625 11.566406 C 15.988281 11.628906 15.878906 11.796875 15.886719 11.972656 L 16.203125 19.003906 C 16.21875 19.140625 16.171875 19.28125 16.078125 19.378906 C 15.828125 19.628906 15.421875 19.628906 15.171875 19.378906 C 15.074219 19.269531 15.027344 19.121094 15.046875 18.972656 L 15.359375 11.96875 C 15.371094 11.785156 15.261719 11.625 15.089844 11.5625 C 14.644531 11.40625 14.3125 11.03125 14.222656 10.566406 C 14.113281 9.933594 14.152344 9.28125 14.339844 8.667969 L 14.605469 7.785156 C 14.8125 7.230469 15.433594 6.941406 15.996094 7.144531 C 16.292969 7.253906 16.527344 7.488281 16.636719 7.785156 L 16.902344 8.667969 C 17.09375 9.285156 17.128906 9.9375 17.019531 10.574219 Z M 17.019531 10.574219 "/>
<path style=" stroke:none;fill-rule:nonzero;fill:rgb(95.686275%,54.509804%,12.54902%);fill-opacity:1;" d="M 11.25 6.25 C 11.019531 6.25 10.832031 6.4375 10.832031 6.667969 L 10.832031 10.246094 L 9.703125 11.375 C 9.621094 11.457031 9.574219 11.574219 9.582031 11.691406 L 9.949219 18.984375 C 9.957031 19.140625 9.902344 19.296875 9.792969 19.410156 C 9.5625 19.640625 9.191406 19.644531 8.964844 19.417969 C 8.964844 19.417969 8.964844 19.417969 8.957031 19.410156 C 8.847656 19.296875 8.792969 19.144531 8.800781 18.984375 L 9.167969 11.691406 C 9.171875 11.574219 9.128906 11.457031 9.046875 11.375 L 7.917969 10.246094 L 7.917969 6.667969 C 7.917969 6.4375 7.730469 6.25 7.5 6.25 C 7.269531 6.25 7.082031 6.4375 7.082031 6.667969 L 7.082031 10.417969 C 7.082031 10.527344 7.125 10.636719 7.203125 10.714844 L 8.324219 11.832031 L 7.96875 18.9375 C 7.933594 19.714844 8.53125 20.375 9.308594 20.410156 C 10.082031 20.449219 10.746094 19.847656 10.78125 19.074219 C 10.78125 19.027344 10.78125 18.980469 10.78125 18.9375 L 10.425781 11.828125 L 11.546875 10.707031 C 11.625 10.628906 11.667969 10.527344 11.667969 10.410156 L 11.667969 6.660156 C 11.667969 6.4375 11.480469 6.25 11.25 6.25 Z M 11.25 6.25 "/>
<path style=" stroke:none;fill-rule:nonzero;fill:rgb(95.686275%,54.509804%,12.54902%);fill-opacity:1;" d="M 8.75 6.25 C 8.519531 6.25 8.332031 6.4375 8.332031 6.667969 L 8.332031 10 C 8.332031 10.230469 8.519531 10.417969 8.75 10.417969 C 8.980469 10.417969 9.167969 10.230469 9.167969 10 L 9.167969 6.667969 C 9.167969 6.4375 8.980469 6.25 8.75 6.25 Z M 8.75 6.25 "/>
<path style=" stroke:none;fill-rule:nonzero;fill:rgb(95.686275%,54.509804%,12.54902%);fill-opacity:1;" d="M 10 6.25 C 9.769531 6.25 9.582031 6.4375 9.582031 6.667969 L 9.582031 10 C 9.582031 10.230469 9.769531 10.417969 10 10.417969 C 10.230469 10.417969 10.417969 10.230469 10.417969 10 L 10.417969 6.667969 C 10.417969 6.4375 10.230469 6.25 10 6.25 Z M 10 6.25 "/>
<path style=" stroke:none;fill-rule:nonzero;fill:rgb(95.686275%,54.509804%,12.54902%);fill-opacity:1;" d="M 12.5 0 C 5.597656 0 0 5.597656 0 12.5 C 0 19.402344 5.597656 25 12.5 25 C 19.402344 25 25 19.402344 25 12.5 C 24.996094 5.597656 19.402344 0.0117188 12.5 0 Z M 12.5 24.167969 C 6.058594 24.167969 0.832031 18.941406 0.832031 12.5 C 0.832031 6.058594 6.058594 0.832031 12.5 0.832031 C 18.941406 0.832031 24.167969 6.058594 24.167969 12.5 C 24.160156 18.941406 18.941406 24.160156 12.5 24.167969 Z M 12.5 24.167969 "/>
<path style=" stroke:none;fill-rule:nonzero;fill:rgb(95.686275%,54.509804%,12.54902%);fill-opacity:1;" d="M 13.855469 20.324219 C 13.832031 20.09375 13.628906 19.925781 13.402344 19.949219 C 13.394531 19.949219 13.390625 19.949219 13.386719 19.949219 C 12.796875 20.015625 12.207031 20.015625 11.621094 19.949219 C 11.390625 19.921875 11.183594 20.082031 11.15625 20.3125 C 11.128906 20.542969 11.292969 20.75 11.519531 20.777344 C 12.171875 20.855469 12.828125 20.855469 13.480469 20.777344 C 13.707031 20.753906 13.875 20.550781 13.855469 20.324219 Z M 13.855469 20.324219 "/>
<path style=" stroke:none;fill-rule:nonzero;fill:rgb(95.686275%,54.509804%,12.54902%);fill-opacity:1;" d="M 18.875 7.128906 C 18.730469 6.953125 18.464844 6.933594 18.285156 7.078125 C 18.109375 7.222656 18.089844 7.488281 18.234375 7.667969 C 20.746094 10.652344 20.550781 15.058594 17.792969 17.8125 C 17.628906 17.972656 17.628906 18.238281 17.792969 18.402344 C 17.953125 18.5625 18.21875 18.5625 18.378906 18.402344 C 21.453125 15.34375 21.667969 10.441406 18.875 7.128906 Z M 18.875 7.128906 "/>
<path style=" stroke:none;fill-rule:nonzero;fill:rgb(95.686275%,54.509804%,12.54902%);fill-opacity:1;" d="M 14.464844 4.402344 C 12.832031 4.011719 11.125 4.113281 9.558594 4.703125 C 9.34375 4.785156 9.234375 5.027344 9.3125 5.238281 C 9.375 5.402344 9.53125 5.511719 9.703125 5.511719 C 9.753906 5.511719 9.800781 5.5 9.847656 5.484375 C 11.261719 4.957031 12.796875 4.859375 14.265625 5.214844 C 14.488281 5.265625 14.714844 5.128906 14.769531 4.90625 C 14.828125 4.675781 14.6875 4.453125 14.464844 4.402344 Z M 14.464844 4.402344 "/>
<path style=" stroke:none;fill-rule:nonzero;fill:rgb(95.686275%,54.509804%,12.54902%);fill-opacity:1;" d="M 7.1875 17.792969 C 5.78125 16.390625 4.996094 14.484375 5 12.5 C 4.996094 10.917969 5.5 9.371094 6.433594 8.089844 C 6.574219 7.90625 6.53125 7.644531 6.347656 7.503906 C 6.167969 7.363281 5.90625 7.40625 5.765625 7.589844 C 5.765625 7.59375 5.761719 7.59375 5.761719 7.597656 C 3.347656 10.910156 3.707031 15.484375 6.597656 18.386719 C 6.761719 18.546875 7.027344 18.546875 7.1875 18.386719 C 7.347656 18.21875 7.347656 17.953125 7.1875 17.792969 Z M 7.1875 17.792969 "/>
</g>
</svg>
