<?xml version="1.0" encoding="UTF-8"?>
<svg xmlns="http://www.w3.org/2000/svg" xmlns:xlink="http://www.w3.org/1999/xlink" width="15pt" height="15pt" viewBox="0 0 15 15" version="1.1">
<g id="surface1">
<path style=" stroke:none;fill-rule:nonzero;fill:rgb(95.686275%,54.509804%,12.54902%);fill-opacity:1;" d="M 7.5 0 C 3.363281 0 0 3.363281 0 7.5 C 0 11.636719 3.363281 15 7.5 15 C 11.636719 15 15 11.636719 15 7.5 C 15 3.363281 11.636719 0 7.5 0 Z M 7.5 14.0625 C 3.882812 14.0625 0.9375 11.117188 0.9375 7.5 C 0.9375 3.882812 3.882812 0.9375 7.5 0.9375 C 11.117188 0.9375 14.0625 3.882812 14.0625 7.5 C 14.0625 11.117188 11.117188 14.0625 7.5 14.0625 Z M 7.5 14.0625 "/>
<path style=" stroke:none;fill-rule:nonzero;fill:rgb(95.686275%,54.509804%,12.54902%);fill-opacity:1;" d="M 7.96875 2.8125 L 7.03125 2.8125 L 7.03125 7.695312 L 9.980469 10.644531 L 10.644531 9.980469 L 7.96875 7.304688 Z M 7.96875 2.8125 "/>
</g>
</svg>
