<?xml version="1.0" encoding="utf-8"?>
<!-- Generator: Adobe Illustrator 22.0.0, SVG Export Plug-In . SVG Version: 6.00 Build 0)  -->
<svg version="1.1" xmlns="http://www.w3.org/2000/svg" xmlns:xlink="http://www.w3.org/1999/xlink" x="0px" y="0px"
	 viewBox="0 0 501.3 501.3" style="enable-background:new 0 0 501.3 501.3;" xml:space="preserve">
<style type="text/css">
	.st0{fill:#3CA1C7;}
</style>
<g id="Layer_1">
	
		<image style="display:none;overflow:visible;" width="64" height="64" xlink:href="C:\Users\Lenovo\Videos\cuña y template\icon (6).png"  transform="matrix(0.75 0 0 0.75 234 228.75)">
	</image>
</g>
<g id="Layer_2">
	<path class="st0" d="M250.6,82c0,0-47,47-114.8,29.2v165.9c0,0,1,25.4,13.4,38.8c12.3,13.4,81,74.4,101.4,75.5
		c20.3-1,89-62.1,101.4-75.5c12.3-13.4,13.4-38.8,13.4-38.8V111.2C297.6,129,250.6,82,250.6,82z M337.9,267.4
		c0,0-0.8,19.3-10.2,29.5c-9.4,10.2-61.6,56.6-77.1,57.4c-15.5-0.8-67.7-47.2-77.1-57.4c-9.4-10.2-10.2-29.5-10.2-29.5V141.3
		c51.5,13.5,87.2-22.2,87.2-22.2s35.7,35.7,87.2,22.2V267.4z"/>
	<path class="st0" d="M184.4,236.7c0,0,9.1-12.2,16-15.9l32.8,24.3c0,0,3.3,3.2,6.2-1.2s57.2-61.7,81.4-70.9l5.2,11.5
		c0,0-37.7,39.3-48.8,56.7c-11.1,17.4-27.7,44.9-29.5,48.5c-1.7,3.4-6.4,6.2-10.1,3C234.4,289.9,205.4,254.3,184.4,236.7z"/>
</g>
</svg>
