<?xml version="1.0" encoding="UTF-8"?>
<svg xmlns="http://www.w3.org/2000/svg" xmlns:xlink="http://www.w3.org/1999/xlink" width="80pt" height="80pt" viewBox="0 0 80 80" version="1.1">
<g id="surface1">
<path style=" stroke:none;fill-rule:nonzero;fill:rgb(23.529412%,63.137255%,78.039216%);fill-opacity:1;" d="M 39.992188 13.085938 C 39.992188 13.085938 32.492188 20.585938 21.671875 17.746094 L 21.671875 44.222656 C 21.671875 44.222656 21.832031 48.273438 23.808594 50.414062 C 25.773438 52.550781 36.738281 62.285156 39.992188 62.460938 C 43.230469 62.300781 54.195312 52.550781 56.175781 50.414062 C 58.136719 48.273438 58.3125 44.222656 58.3125 44.222656 L 58.3125 17.746094 C 47.492188 20.585938 39.992188 13.085938 39.992188 13.085938 Z M 53.921875 42.671875 C 53.921875 42.671875 53.796875 45.753906 52.296875 47.378906 C 50.796875 49.007812 42.464844 56.414062 39.992188 56.539062 C 37.519531 56.414062 29.1875 49.007812 27.6875 47.378906 C 26.1875 45.753906 26.058594 42.671875 26.058594 42.671875 L 26.058594 22.550781 C 34.277344 24.703125 39.976562 19.007812 39.976562 19.007812 C 39.976562 19.007812 45.671875 24.703125 53.890625 22.550781 L 53.890625 42.671875 Z M 53.921875 42.671875 "/>
<path style=" stroke:none;fill-rule:nonzero;fill:rgb(23.529412%,63.137255%,78.039216%);fill-opacity:1;" d="M 29.425781 37.773438 C 29.425781 37.773438 30.878906 35.828125 31.980469 35.238281 L 37.214844 39.113281 C 37.214844 39.113281 37.742188 39.625 38.203125 38.921875 C 38.667969 38.21875 47.332031 29.078125 51.195312 27.609375 L 52.023438 29.445312 C 52.023438 29.445312 46.007812 35.714844 44.238281 38.492188 C 42.464844 41.269531 39.816406 45.65625 39.527344 46.230469 C 39.257812 46.773438 38.507812 47.222656 37.917969 46.710938 C 37.40625 46.265625 32.777344 40.582031 29.425781 37.773438 Z M 29.425781 37.773438 "/>
</g>
</svg>
