<?xml version="1.0" encoding="UTF-8"?>
<svg xmlns="http://www.w3.org/2000/svg" xmlns:xlink="http://www.w3.org/1999/xlink" width="80pt" height="80pt" viewBox="0 0 80 80" version="1.1">
<g id="surface1">
<path style=" stroke:none;fill-rule:nonzero;fill:rgb(23.529412%,63.137255%,78.039216%);fill-opacity:1;" d="M 65.414062 37.261719 C 65.734375 36.929688 65.652344 36.386719 65.269531 36.144531 L 60.882812 33.433594 C 60.578125 33.242188 60.464844 32.875 60.578125 32.554688 L 62.414062 27.75 C 62.574219 27.320312 62.300781 26.84375 61.855469 26.777344 L 56.765625 25.949219 C 56.414062 25.882812 56.15625 25.597656 56.15625 25.246094 L 56.015625 20.089844 C 56 19.628906 55.566406 19.292969 55.121094 19.40625 L 50.109375 20.585938 C 49.773438 20.667969 49.421875 20.492188 49.28125 20.171875 L 47.171875 15.464844 C 46.980469 15.050781 46.457031 14.90625 46.089844 15.175781 L 41.90625 18.191406 C 41.621094 18.398438 41.238281 18.367188 40.980469 18.128906 L 37.246094 14.585938 C 36.910156 14.265625 36.371094 14.347656 36.128906 14.730469 L 33.417969 19.117188 C 33.226562 19.421875 32.859375 19.535156 32.539062 19.421875 L 27.734375 17.554688 C 27.304688 17.394531 26.828125 17.667969 26.761719 18.113281 L 25.933594 23.203125 C 25.867188 23.554688 25.582031 23.808594 25.230469 23.808594 L 20.074219 23.953125 C 19.613281 23.96875 19.277344 24.402344 19.390625 24.847656 L 20.570312 29.859375 C 20.648438 30.195312 20.476562 30.542969 20.15625 30.6875 L 15.449219 32.792969 C 15.03125 32.984375 14.890625 33.511719 15.160156 33.878906 L 18.175781 38.0625 C 18.382812 38.347656 18.351562 38.730469 18.113281 38.988281 L 14.570312 42.722656 C 14.25 43.054688 14.332031 43.597656 14.714844 43.839844 L 19.101562 46.550781 C 19.40625 46.742188 19.515625 47.109375 19.40625 47.429688 L 17.554688 52.25 C 17.394531 52.679688 17.667969 53.15625 18.113281 53.222656 L 23.203125 54.050781 C 23.554688 54.117188 23.808594 54.402344 23.808594 54.753906 L 23.953125 59.910156 C 23.96875 60.371094 24.402344 60.707031 24.847656 60.59375 L 29.859375 59.414062 C 30.195312 59.332031 30.542969 59.507812 30.6875 59.828125 L 32.792969 64.535156 C 32.984375 64.949219 33.511719 65.09375 33.878906 64.824219 L 38.0625 61.808594 C 38.347656 61.601562 38.730469 61.632812 38.988281 61.871094 L 42.722656 65.414062 C 43.054688 65.734375 43.597656 65.652344 43.839844 65.269531 L 46.550781 60.882812 C 46.742188 60.578125 47.109375 60.464844 47.429688 60.578125 L 52.230469 62.414062 C 52.664062 62.574219 53.140625 62.300781 53.207031 61.855469 L 54.035156 56.765625 C 54.097656 56.414062 54.386719 56.15625 54.738281 56.15625 L 59.890625 56.015625 C 60.355469 56 60.691406 55.566406 60.578125 55.121094 L 59.398438 50.109375 C 59.316406 49.773438 59.492188 49.421875 59.8125 49.28125 L 64.519531 47.171875 C 64.933594 46.980469 65.078125 46.457031 64.808594 46.089844 L 61.792969 41.90625 C 61.582031 41.621094 61.617188 41.238281 61.855469 40.980469 Z M 59.125 41.683594 L 61.757812 45.355469 C 62 45.6875 61.871094 46.152344 61.503906 46.3125 L 57.386719 48.148438 C 57.097656 48.273438 56.957031 48.578125 57.019531 48.882812 L 58.058594 53.269531 C 58.152344 53.667969 57.847656 54.035156 57.449219 54.050781 L 52.933594 54.179688 C 52.632812 54.195312 52.375 54.417969 52.328125 54.722656 L 51.609375 59.175781 C 51.546875 59.574219 51.132812 59.8125 50.75 59.667969 L 46.535156 58.058594 C 46.246094 57.945312 45.929688 58.058594 45.769531 58.3125 L 43.390625 62.160156 C 43.183594 62.507812 42.703125 62.558594 42.402344 62.285156 L 39.128906 59.175781 C 38.90625 58.964844 38.570312 58.933594 38.316406 59.125 L 34.644531 61.757812 C 34.3125 62 33.847656 61.871094 33.6875 61.503906 L 31.851562 57.386719 C 31.726562 57.097656 31.421875 56.957031 31.117188 57.019531 L 26.730469 58.058594 C 26.332031 58.152344 25.964844 57.847656 25.949219 57.449219 L 25.820312 52.933594 C 25.804688 52.632812 25.582031 52.375 25.277344 52.328125 L 20.824219 51.609375 C 20.425781 51.546875 20.1875 51.132812 20.332031 50.75 L 21.941406 46.535156 C 22.054688 46.246094 21.941406 45.929688 21.6875 45.769531 L 17.839844 43.390625 C 17.492188 43.183594 17.441406 42.703125 17.714844 42.402344 L 20.824219 39.128906 C 21.035156 38.90625 21.066406 38.570312 20.875 38.316406 L 18.242188 34.644531 C 18 34.3125 18.128906 33.847656 18.496094 33.6875 L 22.613281 31.851562 C 22.902344 31.726562 23.042969 31.421875 22.980469 31.117188 L 21.941406 26.730469 C 21.847656 26.332031 22.152344 25.964844 22.550781 25.949219 L 27.066406 25.820312 C 27.367188 25.804688 27.625 25.582031 27.671875 25.277344 L 28.390625 20.824219 C 28.453125 20.425781 28.867188 20.1875 29.25 20.332031 L 33.464844 21.941406 C 33.753906 22.054688 34.070312 21.941406 34.230469 21.6875 L 36.609375 17.839844 C 36.816406 17.492188 37.296875 17.441406 37.597656 17.714844 L 40.871094 20.824219 C 41.09375 21.035156 41.429688 21.066406 41.683594 20.875 L 45.355469 18.242188 C 45.6875 18 46.152344 18.128906 46.3125 18.496094 L 48.148438 22.613281 C 48.273438 22.902344 48.578125 23.042969 48.882812 22.980469 L 53.269531 21.941406 C 53.667969 21.847656 54.035156 22.152344 54.050781 22.550781 L 54.179688 27.066406 C 54.195312 27.367188 54.417969 27.625 54.722656 27.671875 L 59.175781 28.390625 C 59.574219 28.453125 59.8125 28.867188 59.667969 29.25 L 58.058594 33.464844 C 57.945312 33.753906 58.058594 34.070312 58.3125 34.230469 L 62.160156 36.609375 C 62.507812 36.816406 62.558594 37.296875 62.285156 37.597656 L 59.175781 40.871094 C 58.964844 41.109375 58.949219 41.445312 59.125 41.683594 Z M 59.125 41.683594 "/>
<path style=" stroke:none;fill-rule:nonzero;fill:rgb(23.529412%,63.137255%,78.039216%);fill-opacity:1;" d="M 37.46875 46.214844 C 37.261719 46.214844 37.039062 46.136719 36.878906 45.976562 L 31.820312 40.917969 C 31.503906 40.597656 31.503906 40.070312 31.820312 39.753906 C 32.140625 39.433594 32.667969 39.433594 32.984375 39.753906 L 37.46875 44.238281 L 47.015625 34.695312 C 47.332031 34.375 47.859375 34.375 48.179688 34.695312 C 48.496094 35.011719 48.496094 35.539062 48.179688 35.859375 L 38.0625 45.976562 C 37.886719 46.136719 37.679688 46.214844 37.46875 46.214844 Z M 37.46875 46.214844 "/>
<path style=" stroke:none;fill-rule:nonzero;fill:rgb(23.529412%,63.137255%,78.039216%);fill-opacity:1;" d="M 39.992188 23.90625 C 31.101562 23.90625 23.90625 31.101562 23.90625 39.992188 C 23.90625 48.882812 31.117188 56.078125 39.992188 56.078125 C 48.863281 56.078125 56.078125 48.882812 56.078125 39.992188 C 56.078125 31.101562 48.882812 23.90625 39.992188 23.90625 Z M 39.992188 53.699219 C 32.425781 53.699219 26.300781 47.574219 26.300781 40.007812 C 26.300781 32.445312 32.425781 26.316406 39.992188 26.316406 C 47.554688 26.316406 53.683594 32.445312 53.683594 40.007812 C 53.683594 47.574219 47.554688 53.699219 39.992188 53.699219 Z M 39.992188 53.699219 "/>
</g>
</svg>
