<?xml version="1.0" encoding="UTF-8"?>
<svg xmlns="http://www.w3.org/2000/svg" xmlns:xlink="http://www.w3.org/1999/xlink" width="25pt" height="25pt" viewBox="0 0 25 25" version="1.1">
<g id="surface1">
<path style=" stroke:none;fill-rule:nonzero;fill:rgb(93.333333%,58.039216%,13.333333%);fill-opacity:1;" d="M 21.230469 13.984375 C 19.566406 13.625 17.390625 12.535156 16.59375 11.304688 C 16.160156 10.578125 16.085938 9.78125 16.449219 9.128906 C 16.449219 9.058594 16.523438 9.058594 16.523438 8.984375 C 16.523438 8.839844 16.523438 8.625 16.667969 8.40625 L 7.972656 8.40625 C 8.1875 8.695312 8.332031 8.984375 8.40625 9.128906 C 8.769531 9.855469 8.695312 10.652344 8.261719 11.375 C 7.464844 12.679688 5.289062 13.695312 3.625 14.058594 L 3.332031 21.8125 C 3.261719 22.679688 3.839844 23.332031 4.566406 23.332031 L 20.507812 23.332031 C 21.230469 23.332031 21.8125 22.609375 21.738281 21.8125 Z M 9.925781 19.421875 L 8.40625 19.421875 C 8.117188 19.421875 7.898438 19.203125 7.898438 18.914062 C 7.898438 18.625 8.117188 18.40625 8.40625 18.40625 L 9.925781 18.40625 C 10.21875 18.40625 10.433594 18.625 10.433594 18.914062 C 10.433594 19.203125 10.21875 19.421875 9.925781 19.421875 Z M 9.925781 17.464844 L 8.40625 17.464844 C 8.117188 17.464844 7.898438 17.246094 7.898438 16.957031 C 7.898438 16.667969 8.117188 16.449219 8.40625 16.449219 L 9.925781 16.449219 C 10.21875 16.449219 10.433594 16.667969 10.433594 16.957031 C 10.433594 17.246094 10.21875 17.464844 9.925781 17.464844 Z M 9.925781 15.578125 L 8.40625 15.578125 C 8.117188 15.578125 7.898438 15.363281 7.898438 15.074219 C 7.898438 14.78125 8.117188 14.566406 8.40625 14.566406 L 9.925781 14.566406 C 10.21875 14.566406 10.433594 14.78125 10.433594 15.074219 C 10.433594 15.363281 10.21875 15.578125 9.925781 15.578125 Z M 13.261719 19.421875 L 11.738281 19.421875 C 11.449219 19.421875 11.230469 19.203125 11.230469 18.914062 C 11.230469 18.625 11.449219 18.40625 11.738281 18.40625 L 13.261719 18.40625 C 13.550781 18.40625 13.769531 18.625 13.769531 18.914062 C 13.769531 19.203125 13.550781 19.421875 13.261719 19.421875 Z M 13.261719 17.464844 L 11.738281 17.464844 C 11.449219 17.464844 11.230469 17.246094 11.230469 16.957031 C 11.230469 16.667969 11.449219 16.449219 11.738281 16.449219 L 13.261719 16.449219 C 13.550781 16.449219 13.769531 16.667969 13.769531 16.957031 C 13.769531 17.246094 13.550781 17.464844 13.261719 17.464844 Z M 13.261719 15.578125 L 11.738281 15.578125 C 11.449219 15.578125 11.230469 15.363281 11.230469 15.074219 C 11.230469 14.78125 11.449219 14.566406 11.738281 14.566406 L 13.261719 14.566406 C 13.550781 14.566406 13.769531 14.78125 13.769531 15.074219 C 13.769531 15.363281 13.550781 15.578125 13.261719 15.578125 Z M 16.59375 19.421875 L 15.074219 19.421875 C 14.78125 19.421875 14.566406 19.203125 14.566406 18.914062 C 14.566406 18.625 14.78125 18.40625 15.074219 18.40625 L 16.59375 18.40625 C 16.882812 18.40625 17.101562 18.625 17.101562 18.914062 C 17.101562 19.203125 16.882812 19.421875 16.59375 19.421875 Z M 16.59375 17.464844 L 15.074219 17.464844 C 14.78125 17.464844 14.566406 17.246094 14.566406 16.957031 C 14.566406 16.667969 14.78125 16.449219 15.074219 16.449219 L 16.59375 16.449219 C 16.882812 16.449219 17.101562 16.667969 17.101562 16.957031 C 17.101562 17.246094 16.882812 17.464844 16.59375 17.464844 Z M 16.59375 15.578125 L 15.074219 15.578125 C 14.78125 15.578125 14.566406 15.363281 14.566406 15.074219 C 14.566406 14.78125 14.78125 14.566406 15.074219 14.566406 L 16.59375 14.566406 C 16.882812 14.566406 17.101562 14.78125 17.101562 15.074219 C 17.101562 15.363281 16.882812 15.578125 16.59375 15.578125 Z M 24.925781 9.492188 C 24.925781 9.636719 24.925781 9.78125 24.855469 9.925781 C 24.492188 10.796875 23.839844 11.523438 23.332031 12.320312 C 22.679688 13.332031 17.246094 11.160156 17.972656 9.78125 C 18.261719 9.273438 19.273438 7.898438 19.347656 7.320312 C 19.421875 6.8125 18.769531 6.449219 18.117188 6.375 C 16.523438 6.230469 14.421875 6.375 12.679688 6.375 C 12.609375 6.375 12.609375 6.375 12.535156 6.375 C 12.464844 6.375 12.464844 6.375 12.390625 6.375 C 10.652344 6.375 8.625 6.230469 6.957031 6.375 C 6.375 6.449219 5.726562 6.882812 5.796875 7.320312 C 5.871094 7.898438 6.882812 9.273438 7.175781 9.78125 C 7.898438 11.160156 2.390625 13.332031 1.8125 12.320312 C 1.230469 11.59375 0.578125 10.871094 0.21875 10 C 0.144531 9.855469 0.144531 9.710938 0.144531 9.566406 C -0.652344 6.015625 2.390625 2.320312 7.101562 1.957031 C 8.839844 1.8125 10.652344 1.738281 12.464844 1.667969 C 12.535156 1.667969 12.535156 1.667969 12.609375 1.667969 C 12.679688 1.667969 12.679688 1.667969 12.753906 1.667969 C 14.566406 1.667969 16.304688 1.8125 18.117188 1.957031 C 22.609375 2.320312 25.726562 5.941406 24.925781 9.492188 Z M 24.925781 9.492188 "/>
</g>
</svg>
