<?xml version="1.0" encoding="UTF-8"?>
<svg xmlns="http://www.w3.org/2000/svg" xmlns:xlink="http://www.w3.org/1999/xlink" width="25pt" height="25pt" viewBox="0 0 25 25" version="1.1">
<g id="surface1">
<path style=" stroke:none;fill-rule:nonzero;fill:rgb(96.078431%,96.078431%,96.078431%);fill-opacity:1;" d="M 23.128906 4.308594 L 1.871094 4.308594 C 0.839844 4.308594 0 5.148438 0 6.183594 L 0 18.816406 C 0 19.851562 0.839844 20.691406 1.871094 20.691406 L 23.128906 20.691406 C 24.160156 20.691406 25 19.851562 25 18.816406 L 25 6.183594 C 25 5.148438 24.160156 4.308594 23.128906 4.308594 Z M 23.128906 4.308594 "/>
<path style=" stroke:none;fill-rule:nonzero;fill:rgb(100%,29.411765%,33.333333%);fill-opacity:1;" d="M 0.101562 5.570312 L 24.898438 5.570312 C 24.644531 4.835938 23.945312 4.308594 23.128906 4.308594 L 1.871094 4.308594 C 1.054688 4.308594 0.355469 4.835938 0.101562 5.570312 Z M 0.101562 5.570312 "/>
<path style=" stroke:none;fill-rule:nonzero;fill:rgb(100%,29.411765%,33.333333%);fill-opacity:1;" d="M 0 9.351562 L 25 9.351562 L 25 10.609375 L 0 10.609375 Z M 0 9.351562 "/>
<path style=" stroke:none;fill-rule:nonzero;fill:rgb(100%,29.411765%,33.333333%);fill-opacity:1;" d="M 0 6.828125 L 25 6.828125 L 25 8.089844 L 0 8.089844 Z M 0 6.828125 "/>
<path style=" stroke:none;fill-rule:nonzero;fill:rgb(100%,29.411765%,33.333333%);fill-opacity:1;" d="M 0 12.699219 C 0 12.9375 0.191406 13.128906 0.429688 13.128906 L 25 13.128906 L 25 11.871094 L 0 11.871094 Z M 0 12.699219 "/>
<path style=" stroke:none;fill-rule:nonzero;fill:rgb(100%,29.411765%,33.333333%);fill-opacity:1;" d="M 0 16.910156 L 25 16.910156 L 25 18.171875 L 0 18.171875 Z M 0 16.910156 "/>
<path style=" stroke:none;fill-rule:nonzero;fill:rgb(100%,29.411765%,33.333333%);fill-opacity:1;" d="M 24.898438 19.429688 L 0.101562 19.429688 C 0.355469 20.164062 1.054688 20.691406 1.871094 20.691406 L 23.128906 20.691406 C 23.945312 20.691406 24.644531 20.164062 24.898438 19.429688 Z M 24.898438 19.429688 "/>
<path style=" stroke:none;fill-rule:nonzero;fill:rgb(100%,29.411765%,33.333333%);fill-opacity:1;" d="M 0 14.390625 L 25 14.390625 L 25 15.648438 L 0 15.648438 Z M 0 14.390625 "/>
<path style=" stroke:none;fill-rule:nonzero;fill:rgb(25.490196%,27.843137%,60.784314%);fill-opacity:1;" d="M 0.429688 13.128906 L 11.207031 13.128906 C 11.445312 13.128906 11.636719 12.9375 11.636719 12.699219 L 11.636719 4.742188 C 11.636719 4.503906 11.445312 4.308594 11.207031 4.308594 L 1.871094 4.308594 C 0.839844 4.308594 0 5.148438 0 6.183594 L 0 12.699219 C 0 12.9375 0.191406 13.128906 0.429688 13.128906 Z M 0.429688 13.128906 "/>
<path style=" stroke:none;fill-rule:nonzero;fill:rgb(96.078431%,96.078431%,96.078431%);fill-opacity:1;" d="M 1.210938 5.300781 L 1.304688 5.585938 L 1.609375 5.589844 C 1.648438 5.589844 1.664062 5.636719 1.632812 5.660156 L 1.386719 5.839844 L 1.480469 6.128906 C 1.492188 6.164062 1.449219 6.195312 1.417969 6.171875 L 1.171875 6 L 0.925781 6.171875 C 0.894531 6.195312 0.851562 6.164062 0.863281 6.128906 L 0.957031 5.839844 L 0.710938 5.660156 C 0.679688 5.636719 0.699219 5.589844 0.738281 5.589844 L 1.039062 5.585938 L 1.132812 5.300781 C 1.144531 5.261719 1.199219 5.261719 1.210938 5.300781 Z M 1.210938 5.300781 "/>
<path style=" stroke:none;fill-rule:nonzero;fill:rgb(96.078431%,96.078431%,96.078431%);fill-opacity:1;" d="M 1.210938 6.796875 L 1.304688 7.082031 L 1.609375 7.085938 C 1.648438 7.085938 1.664062 7.136719 1.632812 7.15625 L 1.386719 7.335938 L 1.480469 7.625 C 1.492188 7.664062 1.449219 7.691406 1.417969 7.671875 L 1.171875 7.496094 L 0.925781 7.671875 C 0.894531 7.691406 0.851562 7.664062 0.863281 7.625 L 0.957031 7.335938 L 0.710938 7.160156 C 0.679688 7.136719 0.699219 7.085938 0.738281 7.085938 L 1.039062 7.082031 L 1.132812 6.796875 C 1.144531 6.757812 1.199219 6.757812 1.210938 6.796875 Z M 1.210938 6.796875 "/>
<path style=" stroke:none;fill-rule:nonzero;fill:rgb(96.078431%,96.078431%,96.078431%);fill-opacity:1;" d="M 1.210938 8.292969 L 1.304688 8.578125 L 1.609375 8.582031 C 1.648438 8.582031 1.664062 8.632812 1.632812 8.65625 L 1.386719 8.835938 L 1.480469 9.121094 C 1.492188 9.160156 1.449219 9.191406 1.417969 9.167969 L 1.171875 8.992188 L 0.925781 9.167969 C 0.894531 9.191406 0.851562 9.160156 0.863281 9.121094 L 0.957031 8.835938 L 0.710938 8.65625 C 0.679688 8.632812 0.699219 8.582031 0.738281 8.582031 L 1.039062 8.578125 L 1.132812 8.292969 C 1.144531 8.257812 1.199219 8.257812 1.210938 8.292969 Z M 1.210938 8.292969 "/>
<path style=" stroke:none;fill-rule:nonzero;fill:rgb(96.078431%,96.078431%,96.078431%);fill-opacity:1;" d="M 1.210938 9.789062 L 1.304688 10.078125 L 1.609375 10.078125 C 1.648438 10.078125 1.664062 10.128906 1.632812 10.152344 L 1.386719 10.332031 L 1.480469 10.617188 C 1.492188 10.65625 1.449219 10.6875 1.417969 10.664062 L 1.171875 10.488281 L 0.925781 10.664062 C 0.894531 10.6875 0.851562 10.65625 0.863281 10.617188 L 0.957031 10.332031 L 0.710938 10.152344 C 0.679688 10.128906 0.699219 10.078125 0.738281 10.078125 L 1.039062 10.078125 L 1.132812 9.789062 C 1.144531 9.753906 1.199219 9.753906 1.210938 9.789062 Z M 1.210938 9.789062 "/>
<path style=" stroke:none;fill-rule:nonzero;fill:rgb(96.078431%,96.078431%,96.078431%);fill-opacity:1;" d="M 1.210938 11.285156 L 1.304688 11.574219 L 1.609375 11.574219 C 1.648438 11.574219 1.664062 11.625 1.632812 11.648438 L 1.386719 11.828125 L 1.480469 12.117188 C 1.492188 12.152344 1.449219 12.183594 1.417969 12.160156 L 1.171875 11.984375 L 0.925781 12.160156 C 0.894531 12.183594 0.851562 12.152344 0.863281 12.117188 L 0.957031 11.828125 L 0.710938 11.648438 C 0.679688 11.625 0.699219 11.574219 0.738281 11.574219 L 1.039062 11.574219 L 1.132812 11.285156 C 1.144531 11.25 1.199219 11.25 1.210938 11.285156 Z M 1.210938 11.285156 "/>
<path style=" stroke:none;fill-rule:nonzero;fill:rgb(96.078431%,96.078431%,96.078431%);fill-opacity:1;" d="M 2.371094 6.035156 L 2.46875 6.320312 L 2.769531 6.320312 C 2.808594 6.320312 2.824219 6.371094 2.792969 6.394531 L 2.550781 6.574219 L 2.640625 6.863281 C 2.652344 6.898438 2.609375 6.929688 2.578125 6.90625 L 2.332031 6.730469 L 2.089844 6.90625 C 2.054688 6.929688 2.015625 6.898438 2.027344 6.863281 L 2.117188 6.574219 L 1.875 6.394531 C 1.84375 6.371094 1.859375 6.320312 1.898438 6.320312 L 2.199219 6.320312 L 2.296875 6.035156 C 2.308594 5.996094 2.359375 5.996094 2.371094 6.035156 Z M 2.371094 6.035156 "/>
<path style=" stroke:none;fill-rule:nonzero;fill:rgb(96.078431%,96.078431%,96.078431%);fill-opacity:1;" d="M 2.371094 7.53125 L 2.46875 7.816406 L 2.769531 7.820312 C 2.808594 7.820312 2.824219 7.867188 2.792969 7.890625 L 2.550781 8.070312 L 2.640625 8.359375 C 2.652344 8.394531 2.609375 8.425781 2.578125 8.402344 L 2.332031 8.230469 L 2.089844 8.402344 C 2.054688 8.425781 2.015625 8.394531 2.027344 8.359375 L 2.117188 8.070312 L 1.875 7.890625 C 1.84375 7.867188 1.859375 7.820312 1.898438 7.820312 L 2.199219 7.816406 L 2.296875 7.53125 C 2.308594 7.492188 2.359375 7.492188 2.371094 7.53125 Z M 2.371094 7.53125 "/>
<path style=" stroke:none;fill-rule:nonzero;fill:rgb(96.078431%,96.078431%,96.078431%);fill-opacity:1;" d="M 2.371094 9.027344 L 2.46875 9.3125 L 2.769531 9.316406 C 2.808594 9.316406 2.824219 9.367188 2.792969 9.390625 L 2.550781 9.566406 L 2.640625 9.855469 C 2.652344 9.894531 2.609375 9.921875 2.578125 9.902344 L 2.332031 9.726562 L 2.089844 9.902344 C 2.054688 9.921875 2.015625 9.894531 2.027344 9.855469 L 2.117188 9.566406 L 1.875 9.390625 C 1.84375 9.367188 1.859375 9.316406 1.898438 9.316406 L 2.199219 9.3125 L 2.296875 9.027344 C 2.308594 8.988281 2.359375 8.988281 2.371094 9.027344 Z M 2.371094 9.027344 "/>
<path style=" stroke:none;fill-rule:nonzero;fill:rgb(96.078431%,96.078431%,96.078431%);fill-opacity:1;" d="M 2.371094 10.523438 L 2.46875 10.808594 L 2.769531 10.8125 C 2.808594 10.8125 2.824219 10.863281 2.792969 10.886719 L 2.550781 11.066406 L 2.640625 11.351562 C 2.652344 11.390625 2.609375 11.421875 2.578125 11.398438 L 2.332031 11.222656 L 2.089844 11.398438 C 2.054688 11.421875 2.015625 11.390625 2.027344 11.351562 L 2.117188 11.066406 L 1.875 10.886719 C 1.84375 10.863281 1.859375 10.8125 1.898438 10.8125 L 2.199219 10.808594 L 2.296875 10.523438 C 2.308594 10.488281 2.359375 10.488281 2.371094 10.523438 Z M 2.371094 10.523438 "/>
<path style=" stroke:none;fill-rule:nonzero;fill:rgb(96.078431%,96.078431%,96.078431%);fill-opacity:1;" d="M 3.535156 5.300781 L 3.628906 5.585938 L 3.929688 5.589844 C 3.96875 5.589844 3.984375 5.636719 3.953125 5.660156 L 3.710938 5.839844 L 3.804688 6.128906 C 3.816406 6.164062 3.773438 6.195312 3.742188 6.171875 L 3.496094 5.996094 L 3.25 6.171875 C 3.21875 6.195312 3.175781 6.164062 3.1875 6.128906 L 3.277344 5.839844 L 3.035156 5.660156 C 3.003906 5.636719 3.019531 5.589844 3.058594 5.589844 L 3.363281 5.585938 L 3.457031 5.300781 C 3.46875 5.261719 3.523438 5.261719 3.535156 5.300781 Z M 3.535156 5.300781 "/>
<path style=" stroke:none;fill-rule:nonzero;fill:rgb(96.078431%,96.078431%,96.078431%);fill-opacity:1;" d="M 3.535156 6.796875 L 3.628906 7.082031 L 3.929688 7.085938 C 3.96875 7.085938 3.984375 7.136719 3.953125 7.15625 L 3.710938 7.335938 L 3.804688 7.625 C 3.816406 7.664062 3.773438 7.691406 3.742188 7.671875 L 3.496094 7.496094 L 3.25 7.671875 C 3.21875 7.691406 3.175781 7.664062 3.1875 7.625 L 3.277344 7.335938 L 3.035156 7.15625 C 3.003906 7.136719 3.019531 7.085938 3.058594 7.085938 L 3.363281 7.082031 L 3.457031 6.796875 C 3.46875 6.757812 3.523438 6.757812 3.535156 6.796875 Z M 3.535156 6.796875 "/>
<path style=" stroke:none;fill-rule:nonzero;fill:rgb(96.078431%,96.078431%,96.078431%);fill-opacity:1;" d="M 3.535156 8.292969 L 3.628906 8.578125 L 3.929688 8.582031 C 3.96875 8.582031 3.984375 8.632812 3.953125 8.65625 L 3.710938 8.835938 L 3.804688 9.121094 C 3.816406 9.160156 3.773438 9.191406 3.742188 9.167969 L 3.496094 8.992188 L 3.25 9.167969 C 3.21875 9.191406 3.175781 9.160156 3.1875 9.121094 L 3.277344 8.835938 L 3.035156 8.65625 C 3.003906 8.632812 3.019531 8.582031 3.058594 8.582031 L 3.363281 8.578125 L 3.457031 8.292969 C 3.46875 8.257812 3.523438 8.257812 3.535156 8.292969 Z M 3.535156 8.292969 "/>
<path style=" stroke:none;fill-rule:nonzero;fill:rgb(96.078431%,96.078431%,96.078431%);fill-opacity:1;" d="M 3.535156 9.789062 L 3.628906 10.078125 L 3.929688 10.078125 C 3.96875 10.078125 3.984375 10.128906 3.953125 10.152344 L 3.710938 10.332031 L 3.804688 10.617188 C 3.816406 10.65625 3.773438 10.6875 3.742188 10.664062 L 3.496094 10.488281 L 3.25 10.664062 C 3.21875 10.6875 3.175781 10.65625 3.1875 10.617188 L 3.277344 10.332031 L 3.035156 10.152344 C 3.003906 10.128906 3.019531 10.078125 3.058594 10.078125 L 3.363281 10.078125 L 3.457031 9.789062 C 3.46875 9.753906 3.523438 9.753906 3.535156 9.789062 Z M 3.535156 9.789062 "/>
<path style=" stroke:none;fill-rule:nonzero;fill:rgb(96.078431%,96.078431%,96.078431%);fill-opacity:1;" d="M 3.535156 11.285156 L 3.628906 11.574219 L 3.929688 11.574219 C 3.96875 11.574219 3.984375 11.625 3.953125 11.648438 L 3.710938 11.828125 L 3.804688 12.117188 C 3.816406 12.152344 3.773438 12.183594 3.742188 12.160156 L 3.496094 11.984375 L 3.25 12.160156 C 3.21875 12.183594 3.175781 12.152344 3.1875 12.117188 L 3.277344 11.828125 L 3.035156 11.648438 C 3.003906 11.625 3.019531 11.574219 3.058594 11.574219 L 3.363281 11.574219 L 3.457031 11.285156 C 3.46875 11.25 3.523438 11.25 3.535156 11.285156 Z M 3.535156 11.285156 "/>
<path style=" stroke:none;fill-rule:nonzero;fill:rgb(96.078431%,96.078431%,96.078431%);fill-opacity:1;" d="M 4.695312 6.035156 L 4.792969 6.320312 L 5.09375 6.320312 C 5.132812 6.320312 5.148438 6.371094 5.117188 6.394531 L 4.875 6.574219 L 4.964844 6.863281 C 4.976562 6.898438 4.933594 6.929688 4.902344 6.90625 L 4.65625 6.730469 L 4.410156 6.90625 C 4.378906 6.929688 4.335938 6.898438 4.347656 6.863281 L 4.441406 6.574219 L 4.199219 6.394531 C 4.167969 6.371094 4.183594 6.320312 4.222656 6.320312 L 4.523438 6.320312 L 4.617188 6.035156 C 4.632812 5.996094 4.683594 5.996094 4.695312 6.035156 Z M 4.695312 6.035156 "/>
<path style=" stroke:none;fill-rule:nonzero;fill:rgb(96.078431%,96.078431%,96.078431%);fill-opacity:1;" d="M 4.695312 7.53125 L 4.792969 7.816406 L 5.09375 7.820312 C 5.132812 7.820312 5.148438 7.867188 5.117188 7.890625 L 4.875 8.070312 L 4.964844 8.359375 C 4.976562 8.394531 4.933594 8.425781 4.902344 8.402344 L 4.65625 8.230469 L 4.410156 8.402344 C 4.378906 8.425781 4.335938 8.394531 4.347656 8.359375 L 4.441406 8.070312 L 4.199219 7.890625 C 4.167969 7.867188 4.183594 7.820312 4.222656 7.820312 L 4.523438 7.816406 L 4.617188 7.53125 C 4.632812 7.492188 4.683594 7.492188 4.695312 7.53125 Z M 4.695312 7.53125 "/>
<path style=" stroke:none;fill-rule:nonzero;fill:rgb(96.078431%,96.078431%,96.078431%);fill-opacity:1;" d="M 4.695312 9.027344 L 4.792969 9.3125 L 5.09375 9.316406 C 5.132812 9.316406 5.148438 9.367188 5.117188 9.390625 L 4.875 9.566406 L 4.964844 9.855469 C 4.976562 9.894531 4.933594 9.921875 4.902344 9.902344 L 4.65625 9.726562 L 4.410156 9.902344 C 4.378906 9.921875 4.335938 9.894531 4.347656 9.855469 L 4.441406 9.566406 L 4.199219 9.390625 C 4.167969 9.367188 4.183594 9.316406 4.222656 9.316406 L 4.523438 9.3125 L 4.617188 9.027344 C 4.632812 8.988281 4.683594 8.988281 4.695312 9.027344 Z M 4.695312 9.027344 "/>
<path style=" stroke:none;fill-rule:nonzero;fill:rgb(96.078431%,96.078431%,96.078431%);fill-opacity:1;" d="M 4.695312 10.523438 L 4.792969 10.808594 L 5.09375 10.8125 C 5.132812 10.8125 5.148438 10.863281 5.117188 10.886719 L 4.875 11.066406 L 4.964844 11.351562 C 4.976562 11.390625 4.933594 11.421875 4.902344 11.398438 L 4.65625 11.222656 L 4.410156 11.398438 C 4.378906 11.421875 4.335938 11.390625 4.347656 11.351562 L 4.441406 11.066406 L 4.199219 10.886719 C 4.167969 10.863281 4.183594 10.8125 4.222656 10.8125 L 4.523438 10.808594 L 4.617188 10.523438 C 4.632812 10.488281 4.683594 10.488281 4.695312 10.523438 Z M 4.695312 10.523438 "/>
<path style=" stroke:none;fill-rule:nonzero;fill:rgb(96.078431%,96.078431%,96.078431%);fill-opacity:1;" d="M 5.859375 5.300781 L 5.953125 5.585938 L 6.253906 5.589844 C 6.292969 5.589844 6.308594 5.636719 6.277344 5.660156 L 6.035156 5.839844 L 6.125 6.128906 C 6.136719 6.164062 6.097656 6.195312 6.0625 6.171875 L 5.820312 6 L 5.574219 6.171875 C 5.542969 6.195312 5.5 6.164062 5.511719 6.128906 L 5.601562 5.839844 L 5.359375 5.660156 C 5.328125 5.636719 5.34375 5.589844 5.382812 5.589844 L 5.683594 5.585938 L 5.78125 5.300781 C 5.792969 5.261719 5.84375 5.261719 5.859375 5.300781 Z M 5.859375 5.300781 "/>
<path style=" stroke:none;fill-rule:nonzero;fill:rgb(96.078431%,96.078431%,96.078431%);fill-opacity:1;" d="M 5.859375 6.796875 L 5.953125 7.082031 L 6.253906 7.085938 C 6.292969 7.085938 6.308594 7.136719 6.277344 7.15625 L 6.035156 7.335938 L 6.125 7.625 C 6.136719 7.664062 6.097656 7.691406 6.0625 7.671875 L 5.820312 7.496094 L 5.574219 7.671875 C 5.542969 7.691406 5.5 7.664062 5.511719 7.625 L 5.601562 7.335938 L 5.359375 7.15625 C 5.328125 7.136719 5.34375 7.085938 5.382812 7.085938 L 5.683594 7.082031 L 5.78125 6.796875 C 5.792969 6.757812 5.84375 6.757812 5.859375 6.796875 Z M 5.859375 6.796875 "/>
<path style=" stroke:none;fill-rule:nonzero;fill:rgb(96.078431%,96.078431%,96.078431%);fill-opacity:1;" d="M 5.859375 8.292969 L 5.953125 8.578125 L 6.253906 8.582031 C 6.292969 8.582031 6.308594 8.632812 6.277344 8.65625 L 6.035156 8.835938 L 6.125 9.121094 C 6.136719 9.160156 6.097656 9.191406 6.0625 9.167969 L 5.820312 8.992188 L 5.574219 9.167969 C 5.542969 9.191406 5.5 9.160156 5.511719 9.121094 L 5.601562 8.835938 L 5.359375 8.65625 C 5.328125 8.632812 5.34375 8.582031 5.382812 8.582031 L 5.683594 8.578125 L 5.78125 8.292969 C 5.792969 8.257812 5.84375 8.257812 5.859375 8.292969 Z M 5.859375 8.292969 "/>
<path style=" stroke:none;fill-rule:nonzero;fill:rgb(96.078431%,96.078431%,96.078431%);fill-opacity:1;" d="M 5.859375 9.789062 L 5.953125 10.078125 L 6.253906 10.078125 C 6.292969 10.078125 6.308594 10.128906 6.277344 10.152344 L 6.035156 10.332031 L 6.125 10.617188 C 6.136719 10.65625 6.097656 10.6875 6.0625 10.664062 L 5.820312 10.488281 L 5.574219 10.664062 C 5.542969 10.6875 5.5 10.65625 5.511719 10.617188 L 5.601562 10.332031 L 5.359375 10.152344 C 5.328125 10.128906 5.34375 10.078125 5.382812 10.078125 L 5.683594 10.078125 L 5.78125 9.789062 C 5.792969 9.753906 5.84375 9.753906 5.859375 9.789062 Z M 5.859375 9.789062 "/>
<path style=" stroke:none;fill-rule:nonzero;fill:rgb(96.078431%,96.078431%,96.078431%);fill-opacity:1;" d="M 5.859375 11.285156 L 5.953125 11.574219 L 6.253906 11.574219 C 6.292969 11.574219 6.308594 11.625 6.277344 11.648438 L 6.035156 11.828125 L 6.125 12.117188 C 6.136719 12.152344 6.097656 12.183594 6.0625 12.160156 L 5.820312 11.984375 L 5.574219 12.160156 C 5.542969 12.183594 5.5 12.152344 5.511719 12.117188 L 5.601562 11.828125 L 5.359375 11.648438 C 5.328125 11.625 5.34375 11.574219 5.382812 11.574219 L 5.683594 11.574219 L 5.78125 11.285156 C 5.792969 11.25 5.84375 11.25 5.859375 11.285156 Z M 5.859375 11.285156 "/>
<path style=" stroke:none;fill-rule:nonzero;fill:rgb(96.078431%,96.078431%,96.078431%);fill-opacity:1;" d="M 7.019531 6.035156 L 7.113281 6.320312 L 7.417969 6.320312 C 7.457031 6.320312 7.472656 6.371094 7.441406 6.394531 L 7.199219 6.574219 L 7.289062 6.863281 C 7.300781 6.898438 7.257812 6.929688 7.226562 6.90625 L 6.980469 6.730469 L 6.734375 6.90625 C 6.703125 6.929688 6.660156 6.898438 6.671875 6.863281 L 6.765625 6.574219 L 6.519531 6.394531 C 6.488281 6.371094 6.507812 6.320312 6.546875 6.320312 L 6.847656 6.320312 L 6.941406 6.035156 C 6.953125 5.996094 7.007812 5.996094 7.019531 6.035156 Z M 7.019531 6.035156 "/>
<path style=" stroke:none;fill-rule:nonzero;fill:rgb(96.078431%,96.078431%,96.078431%);fill-opacity:1;" d="M 7.019531 7.53125 L 7.113281 7.816406 L 7.417969 7.820312 C 7.457031 7.820312 7.472656 7.867188 7.441406 7.890625 L 7.199219 8.070312 L 7.289062 8.359375 C 7.300781 8.394531 7.257812 8.425781 7.226562 8.402344 L 6.980469 8.230469 L 6.734375 8.402344 C 6.703125 8.425781 6.660156 8.394531 6.671875 8.359375 L 6.765625 8.070312 L 6.519531 7.890625 C 6.488281 7.867188 6.507812 7.820312 6.546875 7.820312 L 6.847656 7.816406 L 6.941406 7.53125 C 6.953125 7.492188 7.007812 7.492188 7.019531 7.53125 Z M 7.019531 7.53125 "/>
<path style=" stroke:none;fill-rule:nonzero;fill:rgb(96.078431%,96.078431%,96.078431%);fill-opacity:1;" d="M 7.019531 9.027344 L 7.113281 9.3125 L 7.417969 9.316406 C 7.457031 9.316406 7.472656 9.367188 7.441406 9.390625 L 7.199219 9.566406 L 7.289062 9.855469 C 7.300781 9.894531 7.257812 9.921875 7.226562 9.902344 L 6.980469 9.726562 L 6.734375 9.902344 C 6.703125 9.921875 6.660156 9.894531 6.671875 9.855469 L 6.765625 9.566406 L 6.519531 9.390625 C 6.488281 9.367188 6.507812 9.316406 6.546875 9.316406 L 6.847656 9.3125 L 6.941406 9.027344 C 6.953125 8.988281 7.007812 8.988281 7.019531 9.027344 Z M 7.019531 9.027344 "/>
<path style=" stroke:none;fill-rule:nonzero;fill:rgb(96.078431%,96.078431%,96.078431%);fill-opacity:1;" d="M 7.019531 10.523438 L 7.113281 10.808594 L 7.417969 10.8125 C 7.457031 10.8125 7.472656 10.863281 7.441406 10.886719 L 7.199219 11.066406 L 7.289062 11.351562 C 7.300781 11.390625 7.257812 11.421875 7.226562 11.398438 L 6.980469 11.222656 L 6.734375 11.398438 C 6.703125 11.421875 6.660156 11.390625 6.671875 11.351562 L 6.765625 11.066406 L 6.519531 10.886719 C 6.488281 10.863281 6.507812 10.8125 6.546875 10.8125 L 6.847656 10.808594 L 6.941406 10.523438 C 6.953125 10.488281 7.007812 10.488281 7.019531 10.523438 Z M 7.019531 10.523438 "/>
<path style=" stroke:none;fill-rule:nonzero;fill:rgb(96.078431%,96.078431%,96.078431%);fill-opacity:1;" d="M 8.179688 5.300781 L 8.277344 5.585938 L 8.578125 5.589844 C 8.617188 5.589844 8.632812 5.636719 8.601562 5.660156 L 8.359375 5.839844 L 8.449219 6.128906 C 8.460938 6.164062 8.417969 6.195312 8.386719 6.171875 L 8.140625 5.996094 L 7.898438 6.171875 C 7.867188 6.195312 7.824219 6.164062 7.835938 6.128906 L 7.925781 5.839844 L 7.683594 5.660156 C 7.652344 5.636719 7.667969 5.589844 7.707031 5.589844 L 8.007812 5.585938 L 8.105469 5.300781 C 8.117188 5.261719 8.167969 5.261719 8.179688 5.300781 Z M 8.179688 5.300781 "/>
<path style=" stroke:none;fill-rule:nonzero;fill:rgb(96.078431%,96.078431%,96.078431%);fill-opacity:1;" d="M 8.179688 6.796875 L 8.277344 7.082031 L 8.578125 7.085938 C 8.617188 7.085938 8.632812 7.136719 8.601562 7.15625 L 8.359375 7.335938 L 8.449219 7.625 C 8.460938 7.664062 8.417969 7.691406 8.386719 7.671875 L 8.140625 7.496094 L 7.898438 7.671875 C 7.867188 7.691406 7.824219 7.664062 7.835938 7.625 L 7.925781 7.335938 L 7.683594 7.15625 C 7.652344 7.136719 7.667969 7.085938 7.707031 7.085938 L 8.007812 7.082031 L 8.105469 6.796875 C 8.117188 6.757812 8.167969 6.757812 8.179688 6.796875 Z M 8.179688 6.796875 "/>
<path style=" stroke:none;fill-rule:nonzero;fill:rgb(96.078431%,96.078431%,96.078431%);fill-opacity:1;" d="M 8.179688 8.292969 L 8.277344 8.578125 L 8.578125 8.582031 C 8.617188 8.582031 8.632812 8.632812 8.601562 8.65625 L 8.359375 8.835938 L 8.449219 9.121094 C 8.460938 9.160156 8.417969 9.191406 8.386719 9.167969 L 8.140625 8.992188 L 7.898438 9.167969 C 7.867188 9.191406 7.824219 9.160156 7.835938 9.121094 L 7.925781 8.835938 L 7.683594 8.65625 C 7.652344 8.632812 7.667969 8.582031 7.707031 8.582031 L 8.007812 8.578125 L 8.105469 8.292969 C 8.117188 8.257812 8.167969 8.257812 8.179688 8.292969 Z M 8.179688 8.292969 "/>
<path style=" stroke:none;fill-rule:nonzero;fill:rgb(96.078431%,96.078431%,96.078431%);fill-opacity:1;" d="M 8.179688 9.789062 L 8.277344 10.078125 L 8.578125 10.078125 C 8.617188 10.078125 8.632812 10.128906 8.601562 10.152344 L 8.359375 10.332031 L 8.449219 10.617188 C 8.460938 10.65625 8.417969 10.6875 8.386719 10.664062 L 8.140625 10.488281 L 7.898438 10.664062 C 7.867188 10.6875 7.824219 10.65625 7.835938 10.617188 L 7.925781 10.332031 L 7.683594 10.152344 C 7.652344 10.128906 7.667969 10.078125 7.707031 10.078125 L 8.007812 10.078125 L 8.105469 9.789062 C 8.117188 9.753906 8.167969 9.753906 8.179688 9.789062 Z M 8.179688 9.789062 "/>
<path style=" stroke:none;fill-rule:nonzero;fill:rgb(96.078431%,96.078431%,96.078431%);fill-opacity:1;" d="M 8.179688 11.285156 L 8.277344 11.574219 L 8.578125 11.574219 C 8.617188 11.574219 8.632812 11.625 8.601562 11.648438 L 8.359375 11.828125 L 8.449219 12.117188 C 8.460938 12.152344 8.417969 12.183594 8.386719 12.160156 L 8.140625 11.984375 L 7.898438 12.160156 C 7.867188 12.183594 7.824219 12.152344 7.835938 12.117188 L 7.925781 11.828125 L 7.683594 11.648438 C 7.652344 11.625 7.667969 11.574219 7.707031 11.574219 L 8.007812 11.574219 L 8.105469 11.285156 C 8.117188 11.25 8.167969 11.25 8.179688 11.285156 Z M 8.179688 11.285156 "/>
<path style=" stroke:none;fill-rule:nonzero;fill:rgb(96.078431%,96.078431%,96.078431%);fill-opacity:1;" d="M 9.34375 6.035156 L 9.4375 6.320312 L 9.738281 6.320312 C 9.777344 6.320312 9.796875 6.371094 9.765625 6.394531 L 9.519531 6.574219 L 9.613281 6.863281 C 9.625 6.898438 9.582031 6.929688 9.550781 6.90625 L 9.304688 6.730469 L 9.058594 6.90625 C 9.027344 6.929688 8.984375 6.898438 8.996094 6.863281 L 9.085938 6.574219 L 8.84375 6.394531 C 8.8125 6.371094 8.828125 6.320312 8.867188 6.320312 L 9.171875 6.320312 L 9.265625 6.035156 C 9.277344 5.996094 9.332031 5.996094 9.34375 6.035156 Z M 9.34375 6.035156 "/>
<path style=" stroke:none;fill-rule:nonzero;fill:rgb(96.078431%,96.078431%,96.078431%);fill-opacity:1;" d="M 9.34375 7.53125 L 9.4375 7.816406 L 9.738281 7.820312 C 9.777344 7.820312 9.796875 7.867188 9.765625 7.890625 L 9.519531 8.070312 L 9.613281 8.359375 C 9.625 8.394531 9.582031 8.425781 9.550781 8.402344 L 9.304688 8.230469 L 9.058594 8.402344 C 9.027344 8.425781 8.984375 8.394531 8.996094 8.359375 L 9.085938 8.070312 L 8.84375 7.890625 C 8.8125 7.867188 8.828125 7.820312 8.867188 7.820312 L 9.171875 7.816406 L 9.265625 7.53125 C 9.277344 7.492188 9.332031 7.492188 9.34375 7.53125 Z M 9.34375 7.53125 "/>
<path style=" stroke:none;fill-rule:nonzero;fill:rgb(96.078431%,96.078431%,96.078431%);fill-opacity:1;" d="M 9.34375 9.027344 L 9.4375 9.3125 L 9.738281 9.316406 C 9.777344 9.316406 9.796875 9.367188 9.765625 9.390625 L 9.519531 9.566406 L 9.613281 9.855469 C 9.625 9.894531 9.582031 9.921875 9.550781 9.902344 L 9.304688 9.726562 L 9.058594 9.902344 C 9.027344 9.921875 8.984375 9.894531 8.996094 9.855469 L 9.085938 9.566406 L 8.84375 9.390625 C 8.8125 9.367188 8.828125 9.316406 8.867188 9.316406 L 9.171875 9.3125 L 9.265625 9.027344 C 9.277344 8.988281 9.332031 8.988281 9.34375 9.027344 Z M 9.34375 9.027344 "/>
<path style=" stroke:none;fill-rule:nonzero;fill:rgb(96.078431%,96.078431%,96.078431%);fill-opacity:1;" d="M 9.34375 10.523438 L 9.4375 10.808594 L 9.738281 10.8125 C 9.777344 10.8125 9.796875 10.863281 9.765625 10.886719 L 9.519531 11.066406 L 9.613281 11.351562 C 9.625 11.390625 9.582031 11.421875 9.550781 11.398438 L 9.304688 11.222656 L 9.058594 11.398438 C 9.027344 11.421875 8.984375 11.390625 8.996094 11.351562 L 9.085938 11.066406 L 8.84375 10.886719 C 8.8125 10.863281 8.828125 10.8125 8.867188 10.8125 L 9.171875 10.808594 L 9.265625 10.523438 C 9.277344 10.488281 9.332031 10.488281 9.34375 10.523438 Z M 9.34375 10.523438 "/>
<path style=" stroke:none;fill-rule:nonzero;fill:rgb(96.078431%,96.078431%,96.078431%);fill-opacity:1;" d="M 10.503906 5.300781 L 10.601562 5.585938 L 10.902344 5.589844 C 10.941406 5.589844 10.957031 5.636719 10.925781 5.660156 L 10.683594 5.839844 L 10.773438 6.128906 C 10.785156 6.164062 10.742188 6.195312 10.710938 6.171875 L 10.464844 5.996094 L 10.222656 6.171875 C 10.1875 6.195312 10.148438 6.164062 10.160156 6.128906 L 10.25 5.839844 L 10.007812 5.660156 C 9.976562 5.636719 9.992188 5.589844 10.03125 5.589844 L 10.332031 5.585938 L 10.425781 5.300781 C 10.441406 5.261719 10.492188 5.261719 10.503906 5.300781 Z M 10.503906 5.300781 "/>
<path style=" stroke:none;fill-rule:nonzero;fill:rgb(96.078431%,96.078431%,96.078431%);fill-opacity:1;" d="M 10.503906 6.796875 L 10.601562 7.082031 L 10.902344 7.085938 C 10.941406 7.085938 10.957031 7.136719 10.925781 7.15625 L 10.683594 7.335938 L 10.773438 7.625 C 10.785156 7.664062 10.742188 7.691406 10.710938 7.671875 L 10.464844 7.496094 L 10.222656 7.671875 C 10.1875 7.691406 10.148438 7.664062 10.160156 7.625 L 10.25 7.335938 L 10.007812 7.15625 C 9.976562 7.136719 9.992188 7.085938 10.03125 7.085938 L 10.332031 7.082031 L 10.425781 6.796875 C 10.441406 6.757812 10.492188 6.757812 10.503906 6.796875 Z M 10.503906 6.796875 "/>
<path style=" stroke:none;fill-rule:nonzero;fill:rgb(96.078431%,96.078431%,96.078431%);fill-opacity:1;" d="M 10.503906 8.292969 L 10.601562 8.578125 L 10.902344 8.582031 C 10.941406 8.582031 10.957031 8.632812 10.925781 8.65625 L 10.683594 8.835938 L 10.773438 9.121094 C 10.785156 9.160156 10.742188 9.191406 10.710938 9.167969 L 10.464844 8.992188 L 10.222656 9.167969 C 10.1875 9.191406 10.148438 9.160156 10.160156 9.121094 L 10.25 8.835938 L 10.007812 8.65625 C 9.976562 8.632812 9.992188 8.582031 10.03125 8.582031 L 10.332031 8.578125 L 10.425781 8.292969 C 10.441406 8.257812 10.492188 8.257812 10.503906 8.292969 Z M 10.503906 8.292969 "/>
<path style=" stroke:none;fill-rule:nonzero;fill:rgb(96.078431%,96.078431%,96.078431%);fill-opacity:1;" d="M 10.503906 9.789062 L 10.601562 10.078125 L 10.902344 10.078125 C 10.941406 10.078125 10.957031 10.128906 10.925781 10.152344 L 10.683594 10.332031 L 10.773438 10.617188 C 10.785156 10.65625 10.742188 10.6875 10.710938 10.664062 L 10.464844 10.488281 L 10.222656 10.664062 C 10.1875 10.6875 10.148438 10.65625 10.160156 10.617188 L 10.25 10.332031 L 10.007812 10.152344 C 9.976562 10.128906 9.992188 10.078125 10.03125 10.078125 L 10.332031 10.078125 L 10.425781 9.789062 C 10.441406 9.753906 10.492188 9.753906 10.503906 9.789062 Z M 10.503906 9.789062 "/>
<path style=" stroke:none;fill-rule:nonzero;fill:rgb(96.078431%,96.078431%,96.078431%);fill-opacity:1;" d="M 10.503906 11.285156 L 10.601562 11.574219 L 10.902344 11.574219 C 10.941406 11.574219 10.957031 11.625 10.925781 11.648438 L 10.683594 11.828125 L 10.773438 12.117188 C 10.785156 12.152344 10.742188 12.183594 10.710938 12.160156 L 10.464844 11.984375 L 10.222656 12.160156 C 10.1875 12.183594 10.148438 12.152344 10.160156 12.117188 L 10.25 11.828125 L 10.007812 11.648438 C 9.976562 11.625 9.992188 11.574219 10.03125 11.574219 L 10.332031 11.574219 L 10.425781 11.285156 C 10.441406 11.25 10.492188 11.25 10.503906 11.285156 Z M 10.503906 11.285156 "/>
</g>
</svg>
