<?xml version="1.0" encoding="UTF-8"?>
<svg xmlns="http://www.w3.org/2000/svg" xmlns:xlink="http://www.w3.org/1999/xlink" width="25pt" height="25pt" viewBox="0 0 25 25" version="1.1">
<g id="surface1">
<path style=" stroke:none;fill-rule:nonzero;fill:rgb(100%,100%,100%);fill-opacity:1;" d="M 12.503906 0.00390625 C 7.503906 0.00390625 2.980469 2.984375 1.011719 7.582031 L 0.855469 7.632812 L 0.917969 7.816406 C -1.671875 14.207031 1.40625 21.492188 7.800781 24.082031 C 9.296875 24.6875 10.886719 25 12.503906 25 C 19.402344 25 25 19.40625 25 12.503906 C 25 5.597656 19.40625 0.00390625 12.503906 0.00390625 Z M 22.308594 18.804688 L 21.667969 18.164062 L 21.667969 16.664062 C 21.667969 16.601562 21.652344 16.53125 21.625 16.476562 L 20 13.230469 L 20 11.664062 C 20 11.523438 19.933594 11.394531 19.8125 11.316406 L 18.5625 10.480469 C 18.464844 10.414062 18.34375 10.394531 18.230469 10.425781 L 16.699219 10.804688 L 14.128906 9.699219 L 13.773438 7.222656 L 14.753906 6.242188 L 16.855469 6.242188 L 17.5625 7.304688 C 17.625 7.398438 17.730469 7.46875 17.839844 7.484375 L 20.339844 7.898438 C 20.40625 7.910156 20.476562 7.90625 20.539062 7.882812 L 22.839844 7.117188 C 24.78125 10.835938 24.574219 15.289062 22.308594 18.804688 Z M 20.589844 4.109375 L 19.914062 4.5625 L 18.023438 4.179688 L 16.796875 3.773438 C 16.726562 3.75 16.640625 3.742188 16.5625 3.765625 L 15.019531 4.148438 L 14.339844 3.925781 L 14.839844 2.917969 L 16.25 2.917969 C 16.3125 2.917969 16.382812 2.902344 16.4375 2.875 L 17.882812 2.15625 C 18.871094 2.671875 19.78125 3.332031 20.589844 4.109375 Z M 7.9375 1.765625 L 8.9375 2.433594 C 8.984375 2.464844 9.039062 2.484375 9.097656 2.496094 L 11.117188 2.832031 L 10.917969 3.421875 L 9.867188 3.769531 C 9.773438 3.800781 9.695312 3.863281 9.644531 3.953125 L 8.445312 5.945312 L 6.523438 7.097656 L 3.691406 7.503906 C 3.488281 7.535156 3.332031 7.707031 3.332031 7.914062 L 3.332031 9.164062 C 3.332031 9.273438 3.375 9.382812 3.453125 9.460938 L 4.164062 10.175781 L 4.164062 10.886719 L 2.433594 9.730469 L 1.800781 7.847656 C 3.003906 5.113281 5.195312 2.941406 7.9375 1.765625 Z M 6.753906 15.425781 L 4.867188 15.050781 L 4.171875 13.652344 L 4.171875 12.675781 L 5.722656 11.121094 L 6.296875 12.273438 C 6.367188 12.414062 6.507812 12.503906 6.671875 12.503906 L 9.351562 12.503906 L 10.480469 14.382812 C 10.554688 14.507812 10.691406 14.585938 10.839844 14.585938 L 11.996094 14.585938 L 11.707031 16.046875 L 10.128906 17.625 C 10.050781 17.703125 10.007812 17.808594 10.003906 17.921875 L 10.003906 18.964844 L 8.503906 20.089844 C 8.398438 20.167969 8.335938 20.292969 8.335938 20.421875 L 8.335938 21.925781 L 7.816406 21.757812 L 7.085938 19.929688 L 7.085938 15.828125 C 7.085938 15.632812 6.945312 15.464844 6.753906 15.425781 Z M 5.5 21.828125 C 1.574219 18.882812 -0.0898438 13.789062 1.34375 9.09375 L 1.6875 10.128906 C 1.71875 10.214844 1.777344 10.289062 1.847656 10.339844 L 3.925781 11.726562 L 3.453125 12.199219 C 3.375 12.277344 3.332031 12.382812 3.332031 12.496094 L 3.332031 13.746094 C 3.332031 13.808594 3.347656 13.878906 3.375 13.933594 L 4.207031 15.601562 C 4.265625 15.714844 4.375 15.796875 4.5 15.824219 L 6.25 16.171875 L 6.25 19.996094 C 6.25 20.046875 6.257812 20.101562 6.28125 20.152344 L 7.113281 22.234375 C 7.160156 22.347656 7.253906 22.4375 7.367188 22.472656 L 8.617188 22.890625 C 8.660156 22.90625 8.703125 22.910156 8.75 22.910156 C 8.976562 22.910156 9.164062 22.722656 9.164062 22.496094 L 9.164062 20.621094 L 10.664062 19.496094 C 10.769531 19.417969 10.832031 19.292969 10.832031 19.164062 L 10.832031 18.085938 L 12.378906 16.539062 C 12.433594 16.480469 12.476562 16.40625 12.492188 16.324219 L 12.910156 14.242188 C 12.957031 14.019531 12.808594 13.800781 12.582031 13.753906 C 12.554688 13.746094 12.527344 13.742188 12.496094 13.742188 L 11.066406 13.742188 L 9.933594 11.863281 C 9.863281 11.738281 9.726562 11.660156 9.574219 11.660156 L 6.925781 11.660156 L 6.210938 10.222656 C 6.148438 10.101562 6.039062 10.019531 5.90625 9.996094 C 5.773438 9.976562 5.640625 10.019531 5.546875 10.113281 L 5.003906 10.648438 L 5.003906 9.988281 C 5.003906 9.878906 4.960938 9.769531 4.882812 9.691406 L 4.171875 8.976562 L 4.171875 8.28125 L 6.726562 7.914062 C 6.785156 7.90625 6.835938 7.890625 6.882812 7.859375 L 8.96875 6.609375 C 9.023438 6.570312 9.078125 6.523438 9.109375 6.46875 L 10.277344 4.515625 L 11.382812 4.144531 C 11.507812 4.101562 11.605469 4.003906 11.648438 3.878906 L 12.066406 2.628906 C 12.136719 2.410156 12.019531 2.175781 11.800781 2.105469 C 11.777344 2.097656 11.757812 2.09375 11.738281 2.089844 L 9.328125 1.6875 L 8.90625 1.40625 C 11.523438 0.550781 14.367188 0.65625 16.917969 1.703125 L 16.152344 2.082031 L 14.585938 2.082031 C 14.429688 2.082031 14.285156 2.171875 14.210938 2.3125 L 13.378906 3.976562 C 13.273438 4.1875 13.355469 4.4375 13.566406 4.535156 C 13.582031 4.546875 13.601562 4.550781 13.617188 4.554688 L 14.867188 4.972656 C 14.941406 5 15.023438 5.003906 15.101562 4.984375 L 16.648438 4.597656 L 17.78125 4.976562 C 17.796875 4.984375 17.8125 4.988281 17.835938 4.992188 L 19.917969 5.410156 C 20.027344 5.429688 20.136719 5.410156 20.230469 5.347656 L 21.179688 4.71875 C 21.648438 5.238281 22.0625 5.796875 22.433594 6.394531 L 20.382812 7.078125 L 18.164062 6.707031 L 17.429688 5.609375 C 17.351562 5.492188 17.21875 5.425781 17.085938 5.421875 L 14.585938 5.421875 C 14.476562 5.421875 14.367188 5.460938 14.289062 5.539062 L 13.039062 6.789062 C 12.945312 6.882812 12.902344 7.015625 12.917969 7.144531 L 13.335938 10.058594 C 13.355469 10.207031 13.449219 10.324219 13.585938 10.382812 L 16.5 11.632812 C 16.585938 11.667969 16.679688 11.675781 16.765625 11.652344 L 18.257812 11.285156 L 19.167969 11.894531 L 19.167969 13.335938 C 19.167969 13.398438 19.183594 13.464844 19.210938 13.523438 L 20.835938 16.765625 L 20.835938 18.335938 C 20.835938 18.445312 20.875 18.554688 20.953125 18.632812 L 21.824219 19.5 C 17.960938 24.652344 10.648438 25.691406 5.5 21.828125 Z M 5.5 21.828125 "/>
</g>
</svg>
